<svg xmlns="http://www.w3.org/2000/svg" xml:space="preserve" width="5315px" height="5138px" version="1.1" shape-rendering="geometricPrecision" text-rendering="geometricPrecision" image-rendering="optimizeQuality" fill-rule="evenodd" clip-rule="evenodd"
viewBox="0 0 5315 5137.83"
 xmlns:xlink="http://www.w3.org/1999/xlink">
 <g id="Layer_x0020_1">
  <polygon fill="#F7D20C" fill-rule="nonzero" points="-6.96,5145.77 5321.96,5145.77 5321.96,-7.95 -6.96,-7.95 "/>
  <path fill="#F2AD05" fill-rule="nonzero" d="M648.86 4799.92c0,-0.13 0,-0.26 0,-0.4 0.23,-11.6 10.55,-21.57 22.78,-21.34 11.86,0.23 22.06,10.21 22.06,21.64 0,0.13 0,0.27 0,0.4 -0.24,11.82 -10.79,21.33 -22.78,21.33 -11.86,-0.22 -22.06,-9.98 -22.06,-21.63z"/>
  <path fill="#F2AD05" fill-rule="nonzero" d="M569.72 4799.82c0,-11.66 10.21,-21.41 22.31,-21.64 11.98,0 22.3,9.74 22.53,21.58 0,0.12 0,0.25 0,0.38 0,11.44 -10.2,21.41 -22.29,21.41 -12,0 -22.31,-9.74 -22.55,-21.33 0,-0.13 0,-0.27 0,-0.4z"/>
  <path fill="#F2AD05" fill-rule="nonzero" d="M487.71 4799.69c0,-0.13 0,-0.27 0,-0.4 0.24,-11.83 11.26,-21.34 23.02,-21.11 11.94,0.45 21.85,10.21 21.85,21.48 0,0.25 -0.03,0.53 -0.03,0.79 -0.24,11.83 -11.03,21.57 -23.02,21.1 -11.85,-0.22 -21.82,-10.42 -21.82,-21.86z"/>
  <path fill="#F2AD05" fill-rule="nonzero" d="M728.23 4799.84c0,-11.45 10.45,-21.66 22.31,-21.66 11.27,0.23 21.58,9.74 22.06,20.88 0.02,0.38 0.02,0.74 0.02,1.11 0,10.95 -10.01,20.93 -21.61,21.38 -11.98,0.24 -22.78,-9.74 -22.78,-21.33 0,-0.13 0,-0.27 0,-0.38z"/>
  <path fill="#F2AD05" fill-rule="nonzero" d="M810.22 4799.8c0,-10.95 10.23,-21.15 21.85,-21.15 11.62,-0.46 22.3,9.97 22.3,21.19 0,0.13 0,0.25 0,0.38 0,11.13 -10.31,20.87 -21.82,21.11 -11.27,0.22 -21.82,-9.29 -22.31,-20.42 -0.02,-0.37 -0.02,-0.74 -0.02,-1.11z"/>
  <path fill="#F2AD05" fill-rule="nonzero" d="M250.55 4799.29c0.47,-11.59 11.75,-21.57 23.49,-20.64 11.38,0.69 20.86,10.87 20.86,21.41 0,0.13 0,0.26 0,0.39 -0.24,11.59 -11.5,21.57 -23.5,20.88 -11.5,-0.95 -20.85,-11.14 -20.85,-22.04z"/>
  <path fill="#F2AD05" fill-rule="nonzero" d="M408.76 4800.09c0,-0.5 0,-0.99 0.05,-1.49 0.97,-11.6 12.47,-21.11 23.98,-20.19 11.22,0.91 20.41,10.86 20.41,21.46 0,0.27 -0.02,0.54 -0.02,0.81 -0.24,11.6 -11.28,21.57 -23.02,20.87 -11.7,-0.66 -21.4,-10.65 -21.4,-21.46z"/>
  <path fill="#F2AD05" fill-rule="nonzero" d="M329.65 4799.98c0,-0.39 0,-0.77 0.03,-1.15 0.71,-11.13 11.03,-20.65 22.54,-20.65 11.62,0.47 22.06,10.44 22.06,21.88 0,0.13 0,0.26 0,0.39 -0.47,11.59 -11.51,21.57 -23.26,21.1 -11.59,-0.67 -21.37,-10.65 -21.37,-21.57z"/>
  <path fill="#F2AD05" fill-rule="nonzero" d="M889.38 4799.98c0.24,-11.59 11.27,-22.03 23.02,-21.33 11.46,0.68 20.86,10.63 20.86,21.25 0,0.26 0,0.51 0,0.78 -0.47,11.13 -10.79,20.65 -22.3,20.41 -11.27,-0.24 -21.58,-10.2 -21.58,-21.11z"/>
  <path fill="#F2AD05" fill-rule="nonzero" d="M968.76 4799.9c0,-0.14 0,-0.26 0,-0.38 0.48,-11.13 10.55,-20.87 22.06,-20.65 11.27,0.24 21.34,9.98 21.58,20.89 0,11.13 -10.07,20.86 -21.34,21.09 -11.62,0.46 -22.3,-9.74 -22.3,-20.95z"/>
  <path fill="#F2AD05" fill-rule="nonzero" d="M169.01 4800.06c0,-11.21 10.45,-21.41 22.31,-21.19 11.37,0.24 21.34,9.98 21.34,20.73 0,0.14 0,0.25 0,0.38 -0.24,10.91 -10.07,20.87 -21.34,20.87 -11.76,0.24 -21.82,-9.27 -22.31,-20.4 0,-0.13 0,-0.25 0,-0.39z"/>
  <path fill="#F2AD05" fill-rule="nonzero" d="M1048.61 4800.17c0,-0.14 0,-0.27 0,-0.41 0,-11.37 9.84,-20.65 21.58,-20.19 11.28,0.23 20.39,8.82 20.63,19.95 0,0.14 0,0.28 0,0.43 0,11.17 -9.25,20.43 -20.86,20.43 -11.84,0 -21.35,-9.04 -21.35,-20.21z"/>
  <path fill="#F2AD05" fill-rule="nonzero" d="M90.33 4799.44c0,-10.81 9.64,-20.1 21.13,-20.33 11.51,-0.24 21.58,9.28 21.58,20.41 0,0.26 0.03,0.52 0.03,0.78 0,10.81 -9.65,20.1 -20.89,20.32 -11.51,0.23 -21.59,-9.04 -21.83,-20.4 0,-0.27 -0.02,-0.53 -0.02,-0.78z"/>
  <path fill="#F2AD05" fill-rule="nonzero" d="M11.94 4799.98c0,-11.82 9.35,-20.64 21.35,-20.18 11.74,0.47 20.13,9.05 20.13,20.18 0,11.6 -9.34,20.4 -21.57,19.95 -11.51,-0.24 -19.91,-9.04 -19.91,-19.95z"/>
  <path fill="#F2AD05" fill-rule="nonzero" d="M1131.1 4799.99c0,-0.15 0,-0.31 0,-0.47 0.25,-11.13 8.88,-19.49 20.39,-19.49 12.07,0 20.86,8.81 20.86,20.42 0,0.15 0,0.3 0,0.46 -0.72,11.13 -9.59,19.02 -21.34,18.78 -11.6,-0.22 -19.91,-8.57 -19.91,-19.7z"/>
  <path fill="#F2AD05" fill-rule="nonzero" d="M489.36 4723.49c0,-11.39 8.95,-19.99 20.65,-20.22 11.83,-0.23 21.11,8.58 21.11,20.19 0,0.15 0,0.31 0,0.45 -0.48,11.14 -9.12,19.49 -20.63,19.71 -11.52,0 -20.62,-8.34 -21.1,-19.24 0,-0.31 -0.03,-0.6 -0.03,-0.89z"/>
  <path fill="#F2AD05" fill-rule="nonzero" d="M650.51 4723.66c0,-0.29 0,-0.6 0.03,-0.9 0.24,-11.83 9.83,-20.18 22.06,-19.49 11.35,0.69 19.43,9.48 19.43,20.39 0,0.17 0,0.33 0,0.49 -0.25,11.6 -10.08,20.17 -22.07,19.47 -11.19,-0.67 -19.45,-9.25 -19.45,-19.96z"/>
  <path fill="#F2AD05" fill-rule="nonzero" d="M571.41 4723.45c0,-0.16 0,-0.31 0,-0.46 0,-11.6 9.82,-20.41 21.82,-19.72 11.34,0.46 19.66,9.03 19.66,20.17 0,0.15 0,0.31 0,0.47 -0.25,11.6 -9.84,20.18 -22.07,19.71 -11.11,-0.68 -19.41,-9.25 -19.41,-20.17z"/>
  <path fill="#F2AD05" fill-rule="nonzero" d="M410.47 4723.21c0,-0.31 0.02,-0.61 0.02,-0.93 0.73,-11.12 9.59,-19.24 21.34,-18.78 11.6,0.23 19.67,8.57 19.67,19.92 0,0.16 0,0.33 0,0.49 0,11.14 -8.64,19.25 -20.62,19.25 -11.67,0 -20.41,-8.58 -20.41,-19.95z"/>
  <path fill="#F2AD05" fill-rule="nonzero" d="M729.91 4723.69c0,-0.16 0,-0.32 0,-0.47 0,-11.37 8.63,-19.72 20.39,-19.72 11.91,0 20.65,8.59 20.65,19.96 0,0.31 -0.03,0.61 -0.03,0.92 -0.48,11.13 -9.35,19.24 -21.11,18.78 -11.58,-0.23 -19.9,-8.57 -19.9,-19.47z"/>
  <path fill="#F2AD05" fill-rule="nonzero" d="M331.35 4723.66c0,-0.13 0,-0.29 0,-0.44 0,-11.37 8.88,-19.72 20.63,-19.72 11.67,0 20.41,8.59 20.41,19.96 0,0.31 -0.03,0.61 -0.03,0.92 -0.48,11.13 -9.34,19.24 -20.86,18.78 -11.59,-0.23 -20.15,-8.57 -20.15,-19.5z"/>
  <path fill="#F2AD05" fill-rule="nonzero" d="M252.4 4723.64c0,-0.45 0.04,-0.89 0.06,-1.36 0.48,-11.35 9.6,-19.24 21.35,-18.55 11.43,0.45 19.45,8.8 19.45,19.91 0,0.32 0,0.65 -0.03,0.97 -0.72,11.14 -9.83,19.01 -21.34,18.32 -11.27,-0.44 -19.49,-8.59 -19.49,-19.29z"/>
  <path fill="#F2AD05" fill-rule="nonzero" d="M970.43 4723.46c0,-11.13 8.79,-19.49 20.39,-19.49 11.03,0 19.67,8.12 19.67,19.02 0,0.28 0.02,0.57 0.02,0.86 0,10.71 -8.71,19.08 -20.17,19.08 -11.03,-0.23 -19.42,-8.34 -19.91,-19.02 0,-0.14 0,-0.3 0,-0.45z"/>
  <path fill="#F2AD05" fill-rule="nonzero" d="M170.93 4723.66c0,-0.15 0,-0.29 0,-0.44 0,-10.66 8.15,-19.02 19.43,-19.25 11.74,-0.24 20.61,8.35 20.61,19.48 -0.24,10.68 -8.38,19.02 -19.65,19.48 -11.59,0 -20.39,-8.13 -20.39,-19.27z"/>
  <path fill="#F2AD05" fill-rule="nonzero" d="M1210.72 4799.98c0,-0.16 0,-0.31 0,-0.46 0.24,-11.13 9.35,-19.49 21.1,-19.01 10.87,0.69 18.94,8.8 18.94,19.25 0,0.14 0,0.3 0,0.46 -0.24,11.36 -9.35,19.71 -21.1,19.24 -10.87,-0.68 -18.94,-9.02 -18.94,-19.48z"/>
  <path fill="#F2AD05" fill-rule="nonzero" d="M891.3 4723.22c0,-11.13 8.55,-19.49 20.14,-19.49 11.27,0.24 19.66,7.9 20.15,18.8 0.02,0.3 0.02,0.61 0.02,0.91 0,10.93 -8.26,19.27 -19.45,19.49 -11.98,0.23 -20.86,-7.88 -20.86,-19.24 0,-0.16 0,-0.32 0,-0.47z"/>
  <path fill="#F2AD05" fill-rule="nonzero" d="M91.8 4723.48c0,-10.71 8.54,-19.28 20.14,-19.28 10.79,0 19.42,8.12 19.42,18.79 0,0.28 0.03,0.55 0.03,0.84 0,10.51 -8.71,18.87 -19.69,18.87 -10.79,0 -19.42,-8.35 -19.9,-18.79 0,-0.14 0,-0.3 0,-0.43z"/>
  <path fill="#F2AD05" fill-rule="nonzero" d="M811.93 4723.21c0,-11.12 8.31,-19.24 20.14,-19.48 11.75,-0.23 20.38,7.9 20.62,19.26 0,0.15 0,0.3 0,0.45 0,11.15 -8.55,19.49 -20.14,19.49 -11.76,0.23 -20.39,-7.88 -20.62,-19.24 0,-0.16 0,-0.32 0,-0.48z"/>
  <path fill="#F2AD05" fill-rule="nonzero" d="M1290.09 4799.76c0,-10.45 8.88,-19.02 19.67,-19.02 10.78,0 19.66,8.35 19.9,18.78 0,0.14 0,0.3 0,0.43 0,10.24 -8.31,18.59 -18.94,19.05 -11.28,0.46 -20.63,-8.35 -20.63,-19.24z"/>
  <path fill="#F2AD05" fill-rule="nonzero" d="M572.6 4646.52c0,-10.04 9,-18.62 19.43,-18.62 10.55,-0.24 19.66,8.58 19.66,18.78 0,0.14 0,0.27 0,0.4 0,10.04 -9.01,18.86 -19.42,18.86 -10.56,0 -19.67,-8.82 -19.67,-19.03 0,-0.13 0,-0.26 0,-0.39z"/>
  <path fill="#F2AD05" fill-rule="nonzero" d="M12.89 4723.45c0,-10.21 9.12,-19.03 19.67,-19.03 10.79,-0.22 19.67,8.59 19.67,18.8 0,10.2 -8.88,19.01 -19.43,19.25 -10.79,0 -19.66,-8.82 -19.91,-19.02z"/>
  <path fill="#F2AD05" fill-rule="nonzero" d="M1049.78 4723.32c0,-10.52 8.95,-19.12 20.18,-19.12 10.78,0.22 19.41,8.58 19.41,19.02 0,0.13 0,0.27 0,0.42 0,10.24 -8.76,18.59 -19.18,18.83 -10.79,0.46 -19.9,-7.88 -20.38,-18.32 -0.03,-0.29 -0.03,-0.56 -0.03,-0.83z"/>
  <path fill="#F2AD05" fill-rule="nonzero" d="M651.74 4647.08c0,-0.13 0,-0.27 0,-0.4 0,-10.2 9.59,-19.02 19.9,-18.78 10.17,0.21 19.05,8.67 19.05,18.17 0,0.59 -0.02,1.18 -0.11,1.77 -0.96,10.91 -7.67,17.17 -19.18,17.86 -10.42,0.46 -19.66,-8.58 -19.66,-18.62z"/>
  <path fill="#F2AD05" fill-rule="nonzero" d="M253.63 4646.95c0,-0.24 0.03,-0.48 0.03,-0.74 0.25,-9.73 9.6,-18.08 19.43,-17.85 10.31,0.23 18.94,8.59 18.94,18.55 0,9.52 -8.63,18.33 -18.71,18.56 -10.27,0.23 -19.69,-8.61 -19.69,-18.52z"/>
  <path fill="#F2AD05" fill-rule="nonzero" d="M490.59 4646.84c0,-0.13 0,-0.26 0,-0.39 0.23,-10.2 9.83,-19.25 20.38,-18.32 11.27,0.93 17.74,7.43 18.71,18.32 0,0.25 0.02,0.5 0.02,0.75 0,9.9 -9.17,18.5 -19.45,18.5 -10.42,0 -19.66,-8.81 -19.66,-18.86z"/>
  <path fill="#F2AD05" fill-rule="nonzero" d="M1132.06 4723.38c0,-0.13 0,-0.26 0,-0.39 0.25,-10.43 10.07,-19.49 20.39,-18.33 11.27,1.17 17.98,7.43 18.7,18.56 0.03,0.24 0.03,0.48 0.03,0.74 0,9.89 -9.41,18.5 -19.93,18.27 -10.18,0 -19.19,-8.81 -19.19,-18.85z"/>
  <path fill="#F2AD05" fill-rule="nonzero" d="M812.86 4646.95c0,-0.25 0.03,-0.49 0.03,-0.74 0.47,-9.73 9.59,-18.08 19.66,-18.08 10.04,0 19.21,9.05 19.21,18.96 0,0.26 0,0.51 -0.03,0.75 -0.47,9.51 -9.59,17.86 -19.66,17.86 -10.04,-0.23 -19.21,-9.27 -19.21,-18.75z"/>
  <path fill="#F2AD05" fill-rule="nonzero" d="M892.26 4647.08c0,-0.13 0,-0.27 0,-0.4 0.24,-10.2 10.07,-19.24 20.38,-18.32 9.81,0.68 18.01,9.47 18.01,18.7 0,0.26 0,0.53 -0.02,0.78 -0.48,9.74 -9.84,17.86 -19.9,17.63 -9.71,-0.23 -18.47,-8.82 -18.47,-18.39z"/>
  <path fill="#F2AD05" fill-rule="nonzero" d="M332.56 4646.63c0,-0.13 0,-0.28 0,-0.42 0.24,-9.96 10.3,-18.77 20.62,-18.08 9.7,0.69 18.22,9.5 18.22,18.86 0,0.13 0,0.26 0,0.39 -0.48,10.43 -10.31,19.02 -20.85,18.09 -9.7,-0.46 -17.99,-9.25 -17.99,-18.84z"/>
  <path fill="#F2AD05" fill-rule="nonzero" d="M730.76 4647.49c0,-0.57 0.03,-1.15 0.11,-1.73 1.44,-10.91 8.39,-17.17 19.67,-17.63 10.41,-0.45 19.42,8.79 19.42,18.85 0,0.13 0,0.27 0,0.4 -0.48,10.43 -9.83,18.79 -20.38,18.32 -9.94,-0.44 -18.82,-8.89 -18.82,-18.21z"/>
  <path fill="#F2AD05" fill-rule="nonzero" d="M1369.47 4799.98c0,-10.2 9.83,-19.24 20.14,-18.78 10.07,0.23 18.71,9.04 18.71,18.78 0,9.98 -9.6,19.02 -20.15,18.79 -9.83,-0.47 -18.46,-9.28 -18.7,-18.79z"/>
  <path fill="#F2AD05" fill-rule="nonzero" d="M1211.89 4722.93c0,-9.44 8.69,-17.8 18.49,-17.8 10.07,-0.47 19.18,8.11 19.43,18.09 0,9.5 -8.64,18.32 -18.71,18.55 -10.07,0.24 -19.18,-8.35 -19.18,-18.08 -0.03,-0.26 -0.03,-0.51 -0.03,-0.76z"/>
  <path fill="#F2AD05" fill-rule="nonzero" d="M171.89 4646.87c0,-0.15 0,-0.28 0,-0.42 0.24,-9.74 9.11,-18.09 19.43,-17.86 9.93,0 18.45,8.58 18.45,18.16 0,0.13 0,0.26 0,0.4 -0.24,9.74 -9.1,18.32 -19.41,18.09 -9.94,-0.23 -18.47,-8.59 -18.47,-18.37z"/>
  <path fill="#F2AD05" fill-rule="nonzero" d="M411.37 4647.41c0,-0.48 0.03,-0.95 0.08,-1.42 1.44,-10.91 8.15,-17.4 19.43,-17.86 10.41,-0.69 19.66,8.57 19.66,18.63 0,0.13 0,0.26 0,0.39 0,10.2 -9.59,19.02 -20.15,18.55 -10.04,-0.22 -19.02,-8.85 -19.02,-18.29z"/>
  <path fill="#F2AD05" fill-rule="nonzero" d="M971.58 4646.93c0,-0.39 0.03,-0.78 0.05,-1.17 0.49,-9.74 10.08,-17.86 20.15,-17.17 9.67,0.45 17.8,9.02 17.8,18.11 0,0.38 -0.03,0.76 -0.05,1.14 -0.73,9.97 -10.08,18.1 -19.91,17.4 -9.91,-0.67 -18.04,-9.02 -18.04,-18.31z"/>
  <path fill="#F2AD05" fill-rule="nonzero" d="M1291.53 4723.91c0.24,-10.9 8.87,-19.25 19.19,-18.08 11.03,0.92 17.02,7.18 17.26,17.86 0.03,0.25 0.03,0.49 0.03,0.74 0,9.64 -8.93,17.56 -18.98,16.65 -11.02,-0.93 -16.78,-7.43 -17.5,-17.17z"/>
  <path fill="#F2AD05" fill-rule="nonzero" d="M1452.2 4799.98c0,-9.97 8.87,-18.78 18.94,-18.08 11.04,0.69 17.27,6.95 18.47,17.16 0.05,0.47 0.05,0.94 0.05,1.42 0,9.17 -8.68,17.37 -18.28,17.59 -10.06,0.23 -19.18,-8.11 -19.18,-18.09z"/>
  <path fill="#F2AD05" fill-rule="nonzero" d="M1051.46 4647.09c0,-0.29 0,-0.58 0.03,-0.88 0.24,-9.96 9.11,-18.08 19.43,-16.93 11.02,1.17 17.02,7.67 17.02,18.1 0,10.2 -9.12,17.86 -19.67,17.17 -9.54,-0.69 -16.81,-8.33 -16.81,-17.46z"/>
  <path fill="#F2AD05" fill-rule="nonzero" d="M92.99 4647.15c0,-9.97 8.87,-18.79 18.95,-18.33 10.79,0.7 17.27,6.74 18.46,17.39 0.05,0.48 0.09,0.95 0.09,1.42 0,8.97 -8.51,17.16 -18.07,17.38 -10.32,0.23 -19.43,-8.12 -19.43,-17.86z"/>
  <path fill="#F2AD05" fill-rule="nonzero" d="M574.52 4567.84c0,-10.68 6.24,-17.17 17.51,-17.17 11.02,-0.23 17.5,6.03 17.74,16.93 0,10.67 -6.47,16.24 -17.5,17.4 -10.8,-0.93 -17.51,-6.5 -17.75,-17.16z"/>
  <path fill="#F2AD05" fill-rule="nonzero" d="M413.59 4568.07c0,-0.38 0,-0.77 0.01,-1.16 0.25,-10.67 7.2,-16.47 18.23,-16.24 11.03,0.23 16.56,6.96 17.03,17.63 -1.2,10.67 -7.43,16.7 -18.47,16.23 -10.83,-0.45 -16.8,-6.48 -16.8,-16.46z"/>
  <path fill="#F2AD05" fill-rule="nonzero" d="M1133.98 4647.23c0,-0.18 0,-0.36 0,-0.55 0.24,-10.89 6.72,-16.92 17.74,-16.69 11.28,0 17.51,6.49 17.51,17.16 -0.24,10.89 -6.96,16.23 -17.98,16.92 -10.61,-1.13 -17.27,-6.53 -17.27,-16.84z"/>
  <path fill="#F2AD05" fill-rule="nonzero" d="M653.66 4568.14c0,-0.18 0,-0.35 0,-0.54 0.23,-10.9 6.71,-17.16 17.74,-16.93 11.03,0 17.51,6.26 17.51,17.17 -0.25,10.9 -7.2,16 -17.27,17.16 -11.3,-1.14 -17.98,-6.53 -17.98,-16.86z"/>
  <path fill="#F2AD05" fill-rule="nonzero" d="M732.79 4567.68c0,-10.32 5.97,-16.79 17.02,-17.01 11.04,-0.23 17.75,5.57 17.99,16.24 0.03,0.38 0.03,0.75 0.03,1.12 0,9.97 -6.18,15.61 -16.57,16.73 -11.04,-0.46 -17.99,-5.56 -18.47,-16.46 0,-0.21 0,-0.42 0,-0.62z"/>
  <path fill="#F2AD05" fill-rule="nonzero" d="M492.26 4567.84c0.97,-10.68 6.47,-17.17 17.75,-17.17 11.03,0 17.51,6.03 17.74,16.93 0,0.19 0,0.38 0,0.56 0,10.1 -6.42,16.37 -17.26,16.37 -11.27,0.23 -17.02,-6.26 -18.23,-16.69z"/>
  <path fill="#F2AD05" fill-rule="nonzero" d="M14.79 4646.49c0,-0.33 0,-0.63 0.03,-0.97 0.72,-9.5 6.72,-15.53 17.98,-16 10,-0.22 17.83,7.24 17.83,16.69 0,0.54 -0.02,1.09 -0.08,1.63 -0.96,10.67 -7.68,16.23 -18.7,16.23 -9.54,0 -17.06,-7.2 -17.06,-17.58z"/>
  <path fill="#F2AD05" fill-rule="nonzero" d="M94.67 4568.52c0.72,-10.2 6,-16.69 16.55,-17.15 10.31,-0.47 16.79,5.56 17.51,15.54 0,0.19 0,0.39 0,0.58 0,9.86 -5.98,15.88 -16.31,16.35 -10.56,0.46 -16.07,-5.8 -17.75,-15.32z"/>
  <path fill="#F2AD05" fill-rule="nonzero" d="M1612.39 4800.08c0,-0.18 0,-0.37 0,-0.56 0.24,-10.21 6.71,-16 17.02,-15.77 10.58,0.23 16.55,6.03 16.55,15.88 0,0.19 0,0.38 0,0.59 -0.24,10.43 -6.96,15.54 -17.27,16.24 -9.88,-1.38 -16.3,-6.32 -16.3,-16.38z"/>
  <path fill="#F2AD05" fill-rule="nonzero" d="M1371.63 4723.22c0,-10.66 6.71,-16.7 17.74,-16.47 10.56,0 16.55,6.03 17.03,16.24 0,0.34 0.02,0.68 0.02,1.02 0,9.99 -6.82,15.02 -16.33,16.38 -11.75,-0.71 -18.46,-6.26 -18.46,-17.17z"/>
  <path fill="#F2AD05" fill-rule="nonzero" d="M334.68 4568.25c0,-0.37 0,-0.73 0.04,-1.11 0.24,-10.9 7.18,-16.7 17.98,-16.24 10.79,0.47 16.31,6.49 16.31,16.7 0.02,0.35 0.02,0.68 0.02,1.02 0,10.2 -7.06,15.02 -16.57,16.14 -11.36,-1.12 -17.78,-6.35 -17.78,-16.51z"/>
  <path fill="#F2AD05" fill-rule="nonzero" d="M173.8 4566.06c0,-0.18 0,-0.36 0,-0.55 1.2,-8.35 6.48,-14.14 17.52,-14.38 9.16,-0.22 16.67,7.03 16.67,15.71 0,0.64 -0.04,1.27 -0.13,1.92 -0.96,10.21 -7.43,15.54 -17.99,15.31 -9.19,0 -16.07,-7.4 -16.07,-18.01z"/>
  <path fill="#F2AD05" fill-rule="nonzero" d="M1454.12 4723.35c0,-9.87 6.18,-15.92 16.3,-16.36 10.56,-0.24 17.03,5.79 17.27,16 0.03,0.34 0.03,0.67 0.03,1 0,9.55 -6.61,14.59 -16.34,16.16 -10.31,-1.17 -17.02,-6.02 -17.26,-16.24 0,-0.19 0,-0.38 0,-0.56z"/>
  <path fill="#F2AD05" fill-rule="nonzero" d="M894.13 4567.93c0,-0.41 0.02,-0.83 0.05,-1.25 0.96,-10.22 6.95,-15.55 17.51,-15.78 9.75,0 17.04,7.41 17.04,16.74 0,0.29 0,0.58 -0.02,0.88 -0.48,9.05 -7.92,16.01 -17.51,15.78 -9.61,0 -17.07,-7.22 -17.07,-16.37z"/>
  <path fill="#F2AD05" fill-rule="nonzero" d="M1213.36 4646.68c0.95,-9.97 6.23,-15.76 16.78,-16.46 10.07,-0.46 17.99,6.96 17.99,16.69 -0.24,9.74 -7.92,17.16 -18.23,16.7 -10.55,-0.7 -15.59,-6.96 -16.54,-16.93z"/>
  <path fill="#F2AD05" fill-rule="nonzero" d="M814.8 4567.14c1.2,-10.44 6.95,-16.7 18.23,-16.24 10.84,0.44 16.57,6.46 16.57,16.41 0,0.4 0,0.8 -0.03,1.21 -0.48,10.22 -6.71,16.01 -17.26,15.78 -11.27,0 -16.79,-6.49 -17.51,-17.16z"/>
  <path fill="#F2AD05" fill-rule="nonzero" d="M1292.73 4647.38c0.96,-9.97 5.99,-16.46 16.55,-16.69 10.55,-0.24 17.02,5.56 17.26,15.52 0.03,0.38 0.03,0.75 0.03,1.11 0,9.76 -6.15,15.38 -16.33,15.83 -10.56,0.23 -16.07,-6.03 -17.51,-15.77z"/>
  <path fill="#F2AD05" fill-rule="nonzero" d="M973.76 4567.17c0,-9.53 5.95,-15.36 16.1,-15.8 10.79,-0.47 15.83,6.02 17.75,14.61 -0.73,10.89 -5.76,17.63 -16.31,17.86 -10.55,0.46 -17.03,-5.57 -17.51,-15.54 -0.03,-0.38 -0.03,-0.76 -0.03,-1.13z"/>
  <path fill="#F2AD05" fill-rule="nonzero" d="M1532.77 4800.32c0,-0.2 0,-0.37 0,-0.56 0,-10.91 6.72,-16.94 17.75,-16.71 10.55,0.47 16.54,6.26 16.78,16.47 0.04,0.35 0.04,0.7 0.04,1.05 0,10.19 -6.83,15.23 -16.34,16.58 -11.54,-1.14 -18.23,-6.31 -18.23,-16.83z"/>
  <path fill="#F2AD05" fill-rule="nonzero" d="M255.58 4567.37c0,-9.74 8.15,-17.16 18.23,-16.47 10.55,0.93 15.59,6.96 16.55,15.32 -0.48,11.35 -8.4,18.78 -18.47,18.08 -10.55,-0.93 -16.31,-6.73 -16.31,-16.93z"/>
  <path fill="#F2AD05" fill-rule="nonzero" d="M414.7 4491.69c0,-0.52 0.03,-1.04 0.11,-1.56 0.96,-9.27 7.68,-16.22 16.79,-14.37 6.71,1.39 12.22,8.34 18.45,12.75l-0.23 6.27c-6.24,3.94 -11.99,10.2 -18.94,11.82 -7.89,1.97 -16.18,-6.91 -16.18,-14.91z"/>
  <path fill="#F2AD05" fill-rule="nonzero" d="M494.19 4493.4c0,-0.82 0.07,-1.68 0.24,-2.56 1.19,-6.5 8.15,-12.07 12.47,-17.87l6.47 0c4.56,5.8 10.79,11.13 12.71,17.87 0.29,0.88 0.43,1.76 0.43,2.64 0,7.26 -9.06,14.18 -16.98,13.36 -8.66,-0.84 -15.34,-5.83 -15.34,-13.44z"/>
  <path fill="#F2AD05" fill-rule="nonzero" d="M733.88 4491.46c0,-0.52 0.03,-1.04 0.11,-1.56 1.43,-9.27 7.67,-15.99 17.27,-14.14 6.71,1.39 11.98,8.34 17.98,12.75l-0.24 6.27c-6.23,4.17 -11.99,10.2 -18.95,11.82 -7.86,1.74 -16.17,-7.13 -16.17,-15.14z"/>
  <path fill="#F2AD05" fill-rule="nonzero" d="M336.26 4488.71c0,-8.02 7.07,-13.41 15.96,-13.18 8.95,0.21 15.53,5.62 15.53,13.43 0,0.76 -0.05,1.54 -0.17,2.34 -1.45,6.49 -8.17,11.83 -12.73,17.86l-6.47 -0.23c-4.31,-6.03 -11.03,-11.83 -11.99,-18.32 -0.07,-0.65 -0.13,-1.28 -0.13,-1.9z"/>
  <path fill="#F2AD05" fill-rule="nonzero" d="M1372.64 4644.56c0,-7.14 9.06,-14.27 16.97,-13.64 8.77,0.84 15.54,5.96 15.54,13.73 0,0.73 -0.06,1.48 -0.19,2.26 -1.2,6.73 -8.15,12.07 -12.71,18.1l-6.24 0.23c-4.55,-6.03 -11.02,-11.36 -12.94,-18.09 -0.3,-0.85 -0.43,-1.72 -0.43,-2.59z"/>
  <path fill="#F2AD05" fill-rule="nonzero" d="M1135.36 4565.37c0,-7.41 9.25,-14.6 17.32,-13.54 8.64,1.05 15.12,6.02 15.12,13.59 0,0.85 -0.09,1.73 -0.25,2.64 -1.44,6.5 -8.39,12.06 -12.95,17.86l-6.47 -0.23c-4.31,-5.8 -10.55,-11.37 -12.47,-18.09 -0.19,-0.74 -0.3,-1.49 -0.3,-2.23z"/>
  <path fill="#F2AD05" fill-rule="nonzero" d="M1533.54 4721.44c0,-7.19 8.67,-14.58 16.74,-13.76 8.9,0.43 15.96,5.47 15.96,13.61 0,0.62 -0.05,1.26 -0.14,1.93 -1.19,6.49 -7.9,12.06 -12.22,18.09l-6.23 0.46c-4.8,-6.02 -11.52,-11.13 -13.68,-17.62 -0.29,-0.89 -0.43,-1.79 -0.43,-2.71z"/>
  <path fill="#F2AD05" fill-rule="nonzero" d="M816.48 4488.71c0,-7.67 6.72,-12.97 15.59,-13.18 8.9,-0.23 15.96,5.16 15.96,13.37 0,0.63 -0.05,1.27 -0.14,1.94 -0.96,6.26 -7.67,12.06 -11.98,18.09l-6.48 0.23c-4.32,-6.03 -11.51,-11.37 -12.71,-17.86 -0.16,-0.88 -0.24,-1.75 -0.24,-2.59z"/>
  <path fill="#F2AD05" fill-rule="nonzero" d="M257.02 4490.77c0,-9.01 6.18,-15.91 15.35,-14.78 6.71,0.93 12.71,7.42 18.95,11.6l0.23 6.26c-6.23,4.41 -11.75,11.13 -18.46,12.28 -9.36,1.63 -16.07,-5.33 -16.07,-14.83 0,-0.18 0,-0.35 0,-0.53z"/>
  <path fill="#F2AD05" fill-rule="nonzero" d="M16.01 4567.14c0.25,-9.28 6.48,-15.31 16.32,-15.54 9.53,0 16.54,5.31 16.54,13.72 0,0.88 -0.08,1.8 -0.24,2.74 -0.96,6.26 -8.15,12.06 -11.51,16.47 -14.63,-1.86 -21.11,-7.2 -21.11,-17.39z"/>
  <path fill="#F2AD05" fill-rule="nonzero" d="M573.33 4494.08l0 -6.26c6.23,-4.18 11.98,-10.44 18.7,-12.29 7.99,-1.99 16.6,6.93 16.6,15.2 0,0.42 0,0.84 -0.06,1.26 -1.2,9.28 -7.44,16.24 -16.79,14.38 -6.71,-1.16 -12.47,-8.11 -18.45,-12.29z"/>
  <path fill="#F2AD05" fill-rule="nonzero" d="M1052.69 4568.76c1.19,-10.68 6.47,-17.16 17.02,-17.16 10.13,0 16.55,6.04 16.55,15.7 0,0.17 0,0.35 0,0.54 0,9.49 -5.99,15.53 -15.83,16 -10.79,0.46 -15.82,-6.27 -17.74,-15.08z"/>
  <path fill="#F2AD05" fill-rule="nonzero" d="M654.99 4488.81c0,-7.32 8.92,-14.35 16.89,-13.52 8.76,0.83 15.43,5.7 15.43,13.14 0,0.92 -0.11,1.88 -0.32,2.87 -0.96,6.73 -8.16,12.06 -12.47,18.09l-6.47 0c-4.57,-6.03 -10.8,-11.36 -12.72,-18.09 -0.24,-0.83 -0.34,-1.66 -0.34,-2.49z"/>
  <path fill="#F2AD05" fill-rule="nonzero" d="M975.95 4491.1c0,-0.09 0,-0.18 0,-0.26 0.48,-5.34 8.64,-13 14.39,-14.16 8.66,-1.66 15.35,4.2 15.35,12.17 0,0.88 -0.08,1.77 -0.24,2.68 -0.96,6.03 -7.68,11.14 -11.76,16.7l-6.23 0.24c-4.23,-5.94 -11.51,-11.88 -11.51,-17.37z"/>
  <path fill="#F2AD05" fill-rule="nonzero" d="M895.91 4488.89c0,-8.01 7.17,-14.13 15.53,-12.43 6,1.15 14.63,8.81 14.87,13.9 0.03,0.19 0.03,0.37 0.03,0.55 0,5.64 -7.12,11.7 -11.06,17.56l-6.71 0.22c-4.32,-5.79 -11.27,-11.13 -12.47,-17.62 -0.14,-0.74 -0.19,-1.47 -0.19,-2.18z"/>
  <path fill="#F2AD05" fill-rule="nonzero" d="M175.75 4488.37c0,-7.96 7.33,-13.37 16.04,-11.69 6.23,1.16 11.27,7.66 17.03,11.83l0 6.27c-6.23,3.71 -12.95,10.9 -18.95,10.43 -5.27,-0.46 -12.94,-8.8 -13.9,-14.37 -0.17,-0.85 -0.22,-1.67 -0.22,-2.47z"/>
  <path fill="#F2AD05" fill-rule="nonzero" d="M1215.43 4565.42c0,-8.33 7.55,-14.62 16.15,-12.43 6,1.39 13.91,9.51 13.91,14.61 0,0.08 0,0.17 0,0.25 0,5.72 -7.72,11.66 -11.75,17.38l-6.71 0c-4.08,-6.03 -10.8,-12.06 -11.51,-18.32 -0.06,-0.5 -0.09,-1 -0.09,-1.49z"/>
  <path fill="#F2AD05" fill-rule="nonzero" d="M1456.28 4646.49c0,-0.09 0,-0.18 0,-0.28 0.47,-5.09 9.11,-12.75 14.86,-13.68 8.32,-1.44 14.95,4.28 14.95,11.94 0,0.94 -0.11,1.92 -0.32,2.91 -0.96,6.26 -7.67,11.13 -11.98,16.69l-6.49 0c-3.78,-5.93 -11.02,-12.08 -11.02,-17.58z"/>
  <path fill="#F2AD05" fill-rule="nonzero" d="M1614.52 4723.27c0,-0.17 0,-0.34 0.03,-0.51 0.47,-5.11 8.87,-12.76 14.86,-13.69 8.42,-1.46 15.12,4.43 15.12,12.4 0,0.87 -0.09,1.76 -0.25,2.68 -1.2,6.03 -7.91,10.9 -12.22,16.46l-6.48 0c-3.95,-5.84 -11.06,-11.9 -11.06,-17.34z"/>
  <path fill="#F2AD05" fill-rule="nonzero" d="M18.1 4493.74c0,-0.94 0.1,-1.91 0.31,-2.9 1.45,-5.34 8.64,-12.76 13.68,-13.23 5.5,-0.46 11.75,6.26 17.5,9.75l0.25 6.72c-5.76,3.71 -11.28,9.75 -17.28,10.9 -8.07,1.24 -14.46,-3.91 -14.46,-11.24z"/>
  <path fill="#F2AD05" fill-rule="nonzero" d="M733.75 4417.78l0 -6.49c5.51,-3.49 11.27,-10.21 16.3,-9.75 5.28,0.47 12.72,7.42 13.92,12.76 0.26,1.06 0.39,2.1 0.39,3.1 0,6.97 -6.34,11.8 -14.31,10.58 -5.75,-0.92 -10.79,-6.72 -16.3,-10.2z"/>
  <path fill="#F2AD05" fill-rule="nonzero" d="M577.95 4417.41c0,-0.98 0.14,-2.02 0.4,-3.11 1.21,-5.57 8.4,-12.29 13.68,-13.22 8.36,-1.66 14.41,3.71 14.41,11.34 0,0.9 -0.08,1.85 -0.27,2.81 -1.2,5.56 -6.95,10.43 -10.79,15.54 -11.08,-2.43 -17.43,-6.63 -17.43,-13.36z"/>
  <path fill="#F2AD05" fill-rule="nonzero" d="M417.02 4412.64c0,-7.81 6.51,-13.23 14.58,-11.33 5.51,1.39 12.22,8.59 12.7,13.68 0.03,0.24 0.05,0.49 0.05,0.71 0,4.71 -6.47,9.98 -9.88,14.83l-6.7 0c-3.85,-5.1 -9.6,-9.97 -10.56,-15.54 -0.14,-0.79 -0.19,-1.58 -0.19,-2.35z"/>
  <path fill="#F2AD05" fill-rule="nonzero" d="M1137.42 4488.2c0,-7.02 6.34,-12.01 14.3,-10.59 6,0.93 11.28,6.49 16.55,9.75l0.24 6.72c-5.75,3.48 -11.51,10.43 -17.26,10.21 -4.8,-0.46 -12.23,-7.65 -13.43,-12.99 -0.27,-1.07 -0.4,-2.11 -0.4,-3.1z"/>
  <path fill="#F2AD05" fill-rule="nonzero" d="M338.51 4415.24c0,-0.24 0.02,-0.48 0.04,-0.71 0.73,-5.09 7.92,-12.06 13.43,-13.22 8.03,-1.43 14.02,3.8 14.02,11.09 0,0.98 -0.11,2.01 -0.36,3.06 -0.95,5.57 -7.19,10.2 -11.02,15.31l-6.72 -0.24c-3.19,-5.06 -9.39,-10.76 -9.39,-15.29z"/>
  <path fill="#F2AD05" fill-rule="nonzero" d="M1536.37 4646.72c0,-0.09 0,-0.18 0,-0.27 0.24,-4.63 7.91,-11.83 13.67,-12.99 7.94,-1.66 14.18,3.57 14.18,11.02 0,0.86 -0.09,1.75 -0.27,2.67 -0.96,5.56 -6.71,10.66 -10.32,16l-6.71 0c-3.75,-5.25 -10.55,-11.16 -10.55,-16.43z"/>
  <path fill="#F2AD05" fill-rule="nonzero" d="M94.44 4494.31l0 -6.26c5.75,-3.95 11.02,-9.97 17.26,-10.9 9.11,-1.62 14.87,4.64 14.87,13.92 0,0.18 0,0.36 0,0.54 0,8.76 -5.72,14.96 -14.63,13.6 -6.48,-0.92 -11.75,-6.95 -17.5,-10.9z"/>
  <path fill="#F2AD05" fill-rule="nonzero" d="M654.37 4417.55l0 -6.49c5.52,-3.49 10.56,-9.05 16.55,-9.98 9.11,-1.39 14.87,4.41 14.87,13.68 -0.24,9.51 -6.23,15.08 -15.35,13.46 -6,-1.16 -10.79,-6.96 -16.07,-10.67z"/>
  <path fill="#F2AD05" fill-rule="nonzero" d="M1696.9 4721.35c0,-7.76 6.16,-12.24 14.77,-11.82 8.44,0.21 13.88,4.68 13.88,11.52 0,1.13 -0.16,2.32 -0.45,3.56 -1.44,5.57 -7.44,10.21 -11.51,15.07l-6.48 0c-3.35,-5.55 -9.11,-10.43 -10.07,-16.23 -0.1,-0.72 -0.14,-1.43 -0.14,-2.1z"/>
  <path fill="#F2AD05" fill-rule="nonzero" d="M493.23 4411.75c5.74,-3.71 11.5,-10.67 17.02,-10.21 5.03,0 12.46,7.42 13.91,12.76 0.21,1 0.32,1.96 0.32,2.89 0,7.14 -6.18,12.25 -14.23,11.03 -6,-0.93 -11.28,-6.26 -16.78,-9.75l-0.24 -6.72z"/>
  <path fill="#F2AD05" fill-rule="nonzero" d="M1055.24 4488.39c0,-7.37 6.37,-12.65 14.23,-11.01 5.52,1.16 13.43,7.89 13.91,12.75 0.06,0.29 0.06,0.57 0.06,0.85 0,5.34 -6.21,11.04 -9.41,16.55l-6.95 0.23c-4.08,-5.55 -10.32,-10.43 -11.51,-16.46 -0.22,-0.99 -0.33,-1.97 -0.33,-2.91z"/>
  <path fill="#F2AD05" fill-rule="nonzero" d="M1292.49 4571.31l0 -6.5c5.52,-3.7 10.79,-9.96 17.03,-11.13 8.87,-1.85 14.86,4.4 15.35,13.46 0,0.18 0,0.38 0,0.57 0,8.75 -5.46,15.17 -14.39,14.03 -6.24,-0.92 -12,-6.72 -17.99,-10.43z"/>
  <path fill="#F2AD05" fill-rule="nonzero" d="M1372.11 4571.07c2.88,-12.52 8.15,-19.01 17.26,-16.93 5.52,1.4 12.47,8.12 13.43,13.46 0.21,1 0.32,1.95 0.32,2.87 0,7.26 -6.42,12.05 -14.7,10.81 -5.76,-1.16 -10.8,-6.72 -16.31,-10.21z"/>
  <path fill="#F2AD05" fill-rule="nonzero" d="M259.63 4415.68c0,-0.16 0,-0.3 0.03,-0.45 0.49,-5.1 8.15,-9.51 12.71,-14.38 4.78,4.41 12.95,8.35 13.67,13.45 0.03,0.24 0.05,0.48 0.05,0.73 0,4.53 -6,10.22 -9.41,15.27l-6.47 0.23c-3.71,-4.94 -10.58,-10.3 -10.58,-14.85z"/>
  <path fill="#F2AD05" fill-rule="nonzero" d="M174.76 4417.55l0 -6.26c5.52,-3.49 11.51,-10.21 16.56,-9.28 5.03,0.69 11.74,8.35 12.46,13.45 0.03,0.14 0.05,0.3 0.05,0.46 0,3.86 -8.15,11.15 -12.51,11.37 -5.53,0.23 -11.28,-6.26 -16.56,-9.74z"/>
  <path fill="#F2AD05" fill-rule="nonzero" d="M818.16 4415.23c4.55,-4.87 8.63,-12.53 13.91,-13.45 4.8,-0.7 10.79,5.56 16.54,9.05l0.24 6.26c-5.27,3.7 -11.02,10.67 -15.82,10.2 -5.28,-0.23 -9.83,-7.89 -14.87,-12.06z"/>
  <path fill="#F2AD05" fill-rule="nonzero" d="M1214.31 4488.51c5.28,-3.7 10.8,-10.67 15.83,-10.21 5.28,0.47 13.43,7.9 13.67,12.31 0,0.05 0,0.14 0,0.21 0,4.66 -7.52,12.32 -12.71,13.01 -4.79,0.92 -11.03,-5.57 -16.54,-9.05l-0.25 -6.27z"/>
  <path fill="#F2AD05" fill-rule="nonzero" d="M1615.93 4646.93c0,-0.24 0.03,-0.48 0.05,-0.72 1.2,-4.85 8.88,-11.36 14.39,-11.82 3.6,-0.46 11.75,7.89 12,12.52 0,5.11 -6.72,10.44 -10.56,15.54l-6.23 0c-3.41,-5.28 -9.65,-10.99 -9.65,-15.52z"/>
  <path fill="#F2AD05" fill-rule="nonzero" d="M1457.9 4568.28c0,-0.22 0.03,-0.46 0.05,-0.68 0.72,-5.1 8.16,-11.6 13.68,-12.52 3.83,-0.7 12.22,7.65 12.47,12.06 0,0.09 0,0.18 0,0.27 0,5.04 -6.3,10.49 -9.84,15.72l-6.47 0.24c-3.44,-5.08 -9.89,-10.57 -9.89,-15.09z"/>
  <path fill="#F2AD05" fill-rule="nonzero" d="M898.23 4415.68c0,-0.16 0.03,-0.3 0.03,-0.45 0.47,-5.1 7.9,-13.22 12.7,-13.22 4.56,-0.23 12.95,7.19 13.67,12.29 0.03,0.23 0.05,0.47 0.05,0.71 0,4.53 -6.2,10.23 -9.4,15.29l-6.47 0.23c-3.71,-4.94 -10.58,-10.3 -10.58,-14.85z"/>
  <path fill="#F2AD05" fill-rule="nonzero" d="M976.67 4414.3c4.55,-4.4 9.11,-11.83 14.15,-12.29 4.79,-0.47 10.31,6.26 19.42,12.29 -8.87,6.26 -14.63,13.68 -18.94,12.76 -5.52,-0.94 -9.83,-8.35 -14.63,-12.76z"/>
  <path fill="#F2AD05" fill-rule="nonzero" d="M1057 4414.3c0.24,-4.4 8.16,-11.6 12.96,-12.07 4.79,-0.22 10.31,6.5 19.18,12.76 -9.36,6.04 -15.11,12.53 -19.67,11.84 -5.03,-0.71 -12.47,-8.12 -12.47,-12.53z"/>
  <path fill="#F2AD05" fill-rule="nonzero" d="M98.67 4415.5c0,-0.25 0.03,-0.5 0.08,-0.74 1.44,-5.32 9.35,-9.04 14.14,-13.45 4.32,4.64 11.52,9.28 11.76,14.15 0,0.08 0,0.16 0,0.23 0,4.57 -7.06,9.65 -13.67,17.86 -5.62,-8.27 -12.31,-14.1 -12.31,-18.05z"/>
  <path fill="#F2AD05" fill-rule="nonzero" d="M1290.33 4491.07c8.88,-6.26 14.87,-13.23 18.95,-12.3 5.51,0.94 9.59,8.35 14.38,13 -4.79,4.16 -9.1,11.36 -14.38,11.82 -4.56,0.24 -10.07,-6.26 -18.95,-12.52z"/>
  <path fill="#F2AD05" fill-rule="nonzero" d="M1770.66 4724.15c8.63,-6.5 14.39,-13.92 18.47,-13.22 5.51,0.92 10.06,8.34 14.86,12.76 -4.56,4.39 -8.63,11.59 -13.66,12.06 -4.8,0.68 -10.56,-5.8 -19.67,-11.6z"/>
  <path fill="#F2AD05" fill-rule="nonzero" d="M1376.63 4490.5c0,-3.6 7.36,-10.81 11.54,-11.26 5.04,-0.47 10.55,5.33 15.83,8.35l0.24 5.79c-5.04,3.49 -10.55,9.98 -14.87,9.52 -5.03,-0.47 -11.75,-7.2 -12.71,-12.06 0,-0.11 -0.03,-0.22 -0.03,-0.34z"/>
  <path fill="#F2AD05" fill-rule="nonzero" d="M492.26 4334.99c8.16,-5.57 13.68,-12.06 17.51,-11.13 5.28,0.92 8.88,7.88 13.18,12.52 -4.54,3.71 -8.86,10.2 -13.42,10.43 -4.32,0.47 -9.35,-6.03 -17.27,-11.82z"/>
  <path fill="#F2AD05" fill-rule="nonzero" d="M413.13 4335.45c8.15,-5.8 13.66,-12.52 17.51,-11.59 5.03,0.92 8.88,7.88 13.18,12.06 -4.3,3.94 -8.62,10.66 -13.18,10.89 -4.32,0.47 -9.36,-5.79 -17.51,-11.36z"/>
  <path fill="#F2AD05" fill-rule="nonzero" d="M579.31 4334.52c4.57,-3.94 8.87,-10.44 13.43,-10.66 4.32,-0.24 9.35,6.02 17.27,11.82 -8.15,5.57 -13.67,12.06 -17.51,11.13 -5.28,-1.16 -8.62,-7.88 -13.19,-12.29z"/>
  <path fill="#F2AD05" fill-rule="nonzero" d="M659.36 4336.51c0,-0.21 0.02,-0.4 0.05,-0.59 0.96,-4.88 7.91,-8.59 12.23,-12.99 4.31,4.16 11.03,8.11 11.51,12.52 0.02,0.16 0.02,0.32 0.02,0.48 0,4.28 -5.99,9.08 -11.77,16.69 -5.7,-7.29 -12.04,-12.25 -12.04,-16.11z"/>
  <path fill="#F2AD05" fill-rule="nonzero" d="M1698.7 4647.59c0,-0.16 0,-0.29 0.02,-0.44 0.71,-4.87 7.67,-11.36 12.71,-12.3 3.59,-0.46 11.75,6.97 11.99,11.36 0.03,0.19 0.03,0.36 0.03,0.54 0,4.53 -5.68,9.87 -8.9,14.55l-5.76 0.23c-3.49,-4.72 -10.09,-9.63 -10.09,-13.94z"/>
  <path fill="#F2AD05" fill-rule="nonzero" d="M738.46 4336.44c0,-0.25 0.03,-0.52 0.08,-0.76 0.96,-4.64 8.16,-8.35 12.72,-12.75 3.83,4.4 10.55,8.34 11.02,12.75 0.03,0.15 0.03,0.32 0.03,0.46 0,4.29 -6.24,9.1 -12.01,16.7 -5.39,-7.38 -11.84,-12.54 -11.84,-16.4z"/>
  <path fill="#F2AD05" fill-rule="nonzero" d="M1139.2 4414.97c0,-0.22 0.03,-0.45 0.05,-0.67 0.73,-4.64 8.16,-10.9 13.43,-11.6 3.36,-0.69 11.04,7.43 11.28,11.6 0,0.09 0,0.18 0,0.27 0,4.79 -6.29,9.79 -9.59,14.58l-5.76 0c-3.2,-4.64 -9.41,-9.88 -9.41,-14.18z"/>
  <path fill="#F2AD05" fill-rule="nonzero" d="M20.3 4415.22c0,-0.16 0,-0.3 0.04,-0.46 0.71,-4.86 7.67,-11.36 12.95,-12.06 3.34,-0.69 11.27,6.96 11.74,11.37 0.02,0.17 0.02,0.36 0.02,0.54 0,4.7 -5.91,9.61 -9.38,14.54l-5.75 0c-3.25,-4.48 -9.62,-9.62 -9.62,-13.93z"/>
  <path fill="#F2AD05" fill-rule="nonzero" d="M1534.93 4570.61l0 -5.56c5.04,-3.48 10.56,-9.97 15.35,-9.51 4.8,0.7 11.27,7.88 11.99,12.76 0.03,0.14 0.05,0.29 0.05,0.44 0,3.47 -7.43,10.7 -11.8,10.92 -5.03,0.23 -10.31,-5.8 -15.59,-9.05z"/>
  <path fill="#F2AD05" fill-rule="nonzero" d="M1857.42 4724.27c0,-0.2 0,-0.39 0.05,-0.58 1.19,-4.87 8.39,-8.59 12.95,-12.76 3.83,4.4 10.55,8.58 10.79,12.98 0,0.08 0,0.16 0,0.24 0,4.34 -6.34,8.95 -12.23,16.7 -5.47,-7.7 -11.56,-12.9 -11.56,-16.58z"/>
  <path fill="#F2AD05" fill-rule="nonzero" d="M261.58 4335.02c0,-0.1 0,-0.17 0,-0.26 0.48,-3.72 8.14,-10.9 11.03,-9.98 4.79,1.16 10.3,6.73 11.27,11.36 0.03,0.19 0.05,0.38 0.05,0.57 0,3.41 -5.89,7.97 -11.56,15.44 -5.17,-8.18 -10.79,-12.8 -10.79,-17.13z"/>
  <path fill="#F2AD05" fill-rule="nonzero" d="M894.65 4334.52c7.68,-4.87 12.96,-10.66 16.55,-9.74 4.56,0.92 8.16,7.18 12,11.14 -4.32,3.7 -8.4,9.49 -13.2,9.97 -3.59,0.69 -8.15,-5.57 -15.35,-11.37z"/>
  <path fill="#F2AD05" fill-rule="nonzero" d="M340.61 4335.62c0,-0.3 0.02,-0.58 0.1,-0.86 0.95,-4.42 7.67,-9.98 12.47,-10.44 3.12,-0.24 10.31,7.19 10.31,11.13 0,4.64 -5.99,9.04 -12.47,17.39 -4.9,-8.39 -10.41,-13.4 -10.41,-17.22z"/>
  <path fill="#F2AD05" fill-rule="nonzero" d="M820.98 4335.88c0,-0.23 0,-0.45 0.06,-0.66 0.71,-4.41 7.19,-9.97 11.99,-10.9 3.11,-0.46 10.55,6.72 10.79,10.67 0,4.63 -5.52,9.27 -11.51,17.85 -5.68,-8.11 -11.33,-13.11 -11.33,-16.96z"/>
  <path fill="#F2AD05" fill-rule="nonzero" d="M1459.87 4491.07c0,-3.71 6.72,-7.66 10.31,-11.36 4.32,3.7 10.8,6.95 11.76,11.59 0.08,0.26 0.1,0.53 0.1,0.8 0,3.45 -5.32,8.38 -10.66,15.9 -5.75,-8.12 -11.51,-12.53 -11.51,-16.93z"/>
  <path fill="#F2AD05" fill-rule="nonzero" d="M1219.32 4413.54c0,-3.16 7.12,-9.91 11.06,-10.14 4.56,0 9.59,5.56 18.47,11.13 -8.88,5.8 -14.15,11.59 -18.23,10.9 -4.55,-0.46 -10.31,-6.96 -11.27,-11.6 -0.03,-0.08 -0.03,-0.19 -0.03,-0.29z"/>
  <path fill="#F2AD05" fill-rule="nonzero" d="M1610.95 4567.6c9.11,-5.8 14.39,-11.6 18.46,-10.9 4.56,0.69 10.32,7.19 11.04,11.82 0,0.1 0.02,0.2 0.02,0.3 0,3.14 -7.11,9.68 -11.06,9.68 -4.79,0.24 -9.59,-5.33 -18.46,-10.9z"/>
  <path fill="#F2AD05" fill-rule="nonzero" d="M179.08 4334.99c3.84,-3.72 7.67,-10.21 11.51,-10.21 4.56,-0.24 9.36,5.34 17.75,10.67 -8.39,5.57 -13.43,11.36 -17.02,10.67 -4.57,-1.17 -8.16,-7.19 -12.24,-11.13z"/>
  <path fill="#F2AD05" fill-rule="nonzero" d="M1779.19 4647.92c0,-0.27 0.02,-0.52 0.1,-0.77 0.96,-4.4 7.43,-7.89 11.51,-11.59 3.84,4.16 9.84,7.88 10.55,12.52 0.03,0.13 0.03,0.26 0.03,0.39 0,3.62 -6.24,7.75 -12.01,14.68 -4.67,-7.1 -10.18,-11.81 -10.18,-15.23z"/>
  <path fill="#F2AD05" fill-rule="nonzero" d="M661.09 4259.15c0,-3.48 6,-9.51 9.83,-10.21 3.84,-0.46 8.39,4.64 16.07,9.27 -7.2,5.34 -11.51,10.67 -15.35,10.21 -4.08,0 -10.31,-5.8 -10.55,-9.27z"/>
  <path fill="#F2AD05" fill-rule="nonzero" d="M420.99 4259.77c0,-0.21 0.03,-0.42 0.05,-0.62 0.24,-3.71 5.99,-9.98 9.84,-10.21 3.59,0 9.59,5.8 10.31,9.75 0.02,0.14 0.02,0.29 0.02,0.44 0,3.41 -5.02,7.75 -9.61,14.86 -4.98,-6.58 -10.61,-10.66 -10.61,-14.22z"/>
  <path fill="#F2AD05" fill-rule="nonzero" d="M740.2 4258.93c0,-0.16 0,-0.32 0.02,-0.48 0.48,-3.71 6.96,-6.73 10.55,-10.2 3.36,3.7 9.36,7.19 9.59,10.9 0.03,0.14 0.03,0.3 0.03,0.43 0,3.61 -5.51,7.72 -10.58,14.41 -4.57,-7.11 -9.61,-11.45 -9.61,-15.06z"/>
  <path fill="#F2AD05" fill-rule="nonzero" d="M576.44 4258.21c7.67,-4.63 12.22,-9.73 15.83,-9.27 4.07,0.7 7.43,6.73 10.78,10.21 -3.83,3.47 -7.43,9.27 -11.27,9.27 -3.83,0.46 -7.9,-4.87 -15.34,-10.21z"/>
  <path fill="#F2AD05" fill-rule="nonzero" d="M1378.53 4415.18c0,-0.15 0.02,-0.29 0.05,-0.42 1.2,-4.4 6.72,-9.5 11.27,-10.19 3.36,-0.7 7.92,5.09 15.35,10.42 -7.92,4.87 -12.71,9.98 -17.03,9.74 -3.41,-0.22 -9.64,-6.71 -9.64,-9.55z"/>
  <path fill="#F2AD05" fill-rule="nonzero" d="M1533.01 4490.13c8.64,-4.63 13.91,-9.96 17.99,-9.27 4.08,0.93 9.11,7.19 9.59,11.6 0.03,0.08 0.03,0.17 0.03,0.26 0,2.9 -7.09,8.78 -10.58,8.78 -4.55,-0.23 -8.88,-5.57 -17.03,-11.37z"/>
  <path fill="#F2AD05" fill-rule="nonzero" d="M1858.91 4646.68c0,-3.47 6.47,-6.96 10.07,-10.43 3.84,3.47 9.83,6.73 10.79,10.9 0.05,0.2 0.05,0.39 0.05,0.6 0,3.21 -5.17,7.73 -10.12,14.7 -5.28,-7.18 -10.79,-11.6 -10.79,-15.77z"/>
  <path fill="#F2AD05" fill-rule="nonzero" d="M1700.53 4567.95c0,-0.29 0.02,-0.55 0.11,-0.81 0.71,-4.18 7.19,-9.06 11.75,-9.75 2.88,-0.46 9.35,6.73 9.35,10.21 0,4.41 -5.51,8.58 -11.27,16.47 -4.67,-7.73 -9.94,-12.68 -9.94,-16.12z"/>
  <path fill="#F2AD05" fill-rule="nonzero" d="M1299.18 4413.83c0,-3.82 5.54,-8.19 11.06,-15.76 5.19,7.64 10.39,12.39 10.39,16.01 0,0.24 -0.03,0.46 -0.09,0.68 -0.47,4.17 -6.94,7.2 -11.02,10.9 -3.6,-3.7 -10.08,-7.42 -10.31,-11.36 -0.03,-0.15 -0.03,-0.3 -0.03,-0.47z"/>
  <path fill="#F2AD05" fill-rule="nonzero" d="M94.67 4335.92c8.15,-5.58 12.94,-11.14 16.79,-10.67 4.32,0.22 9.83,6.02 11.03,10.43 0.02,0.11 0.02,0.2 0.02,0.32 0,2.93 -6.15,9.2 -10.09,9.65 -4.32,0.24 -8.87,-4.63 -17.75,-9.73z"/>
  <path fill="#F2AD05" fill-rule="nonzero" d="M1141.41 4335.92c0,-0.09 0,-0.17 0,-0.24 0.25,-3.72 6.24,-9.98 9.84,-9.98 3.59,-0.23 10.07,5.57 10.55,9.52 0.02,0.15 0.02,0.29 0.02,0.44 0,3.41 -5.03,7.77 -9.86,14.86 -5.16,-6.81 -10.55,-10.95 -10.55,-14.6z"/>
  <path fill="#F2AD05" fill-rule="nonzero" d="M1937.72 4723.23c0,-0.24 0.03,-0.48 0.08,-0.7 0.96,-3.95 7.68,-8.82 12.23,-9.29 2.64,-0.23 9.12,6.73 9.12,10.45 -0.24,4.16 -5.76,8.34 -11.75,15.99 -4.72,-7.82 -9.68,-12.81 -9.68,-16.45z"/>
  <path fill="#F2AD05" fill-rule="nonzero" d="M21.29 4335.68c4.07,-3.72 7.19,-9.51 12,-10.43 3.11,-0.71 7.9,4.87 15.58,9.97 -7.92,5.1 -12.24,10.19 -16.54,10.19 -3.85,-0.22 -7.21,-6.26 -11.04,-9.73z"/>
  <path fill="#F2AD05" fill-rule="nonzero" d="M979.74 4335.66c0,-0.23 0.02,-0.45 0.05,-0.67 0.72,-4.18 7.67,-10.21 11.27,-9.98 3.84,0.24 10.07,6.73 10.31,10.91 0,0.08 0,0.14 0,0.22 0,3.89 -5.86,8.27 -11.75,15.55 -4.75,-7.42 -9.88,-12.38 -9.88,-16.03z"/>
  <path fill="#F2AD05" fill-rule="nonzero" d="M1059.16 4333.92c0,-2.86 7.01,-9.14 10.8,-8.91 4.31,0.24 8.63,5.57 16.78,11.37 -8.88,4.64 -14.15,9.97 -17.98,9.27 -4.08,-0.93 -9.12,-7.42 -9.6,-11.59 0,-0.05 0,-0.09 0,-0.14z"/>
  <path fill="#F2AD05" fill-rule="nonzero" d="M499.95 4259.38c0,-0.08 0,-0.16 0,-0.23 0.47,-3.71 6.23,-9.98 9.82,-10.21 3.6,0 10.07,5.8 10.56,9.51 0.03,0.16 0.03,0.32 0.03,0.48 0,3.61 -5.04,7.95 -9.63,15.06 -5.4,-6.81 -10.78,-10.96 -10.78,-14.61z"/>
  <path fill="#F2AD05" fill-rule="nonzero" d="M262.96 4258.85c0,-0.22 0,-0.43 0.06,-0.64 0.71,-3.7 6.7,-8.34 11.02,-8.81 2.64,-0.46 8.64,6.27 8.64,9.52 0,3.94 -5.28,7.65 -10.55,14.83 -4.27,-6.95 -9.17,-11.68 -9.17,-14.9z"/>
  <path fill="#F2AD05" fill-rule="nonzero" d="M2020.54 4722.99c3.35,-3.02 6.71,-8.35 10.31,-8.59 3.59,-0.23 7.19,4.87 13.9,9.51 -6.95,4.42 -11.27,9.05 -14.62,8.35 -3.6,-0.46 -6.48,-6.03 -9.59,-9.27z"/>
  <path fill="#F2AD05" fill-rule="nonzero" d="M822.45 4259.12c0,-0.15 0,-0.29 0.03,-0.43 0.72,-3.72 6.47,-8.59 10.55,-9.29 2.64,-0.46 8.87,5.57 9.11,9.05 0,3.94 -4.8,7.89 -9.59,15.3 -4.82,-6.89 -10.1,-11.23 -10.1,-14.63z"/>
  <path fill="#F2AD05" fill-rule="nonzero" d="M1461.23 4414.53c0,-0.23 0.03,-0.46 0.09,-0.7 0.71,-3.7 6.71,-8.11 11.02,-8.8 2.59,-0.24 8.39,6.23 8.39,9.54 0,0.07 0,0.13 0,0.19 0,3.95 -5.27,7.66 -10.55,14.61 -4.26,-6.93 -8.95,-11.44 -8.95,-14.84z"/>
  <path fill="#F2AD05" fill-rule="nonzero" d="M336.63 4258.92c7.44,-4.87 11.75,-9.98 15.35,-9.52 3.85,0.47 8.87,6.04 9.84,10.21 0.02,0.08 0.02,0.16 0.02,0.27 0,2.48 -6.13,8.32 -9.38,8.54 -4.08,0 -8.39,-4.64 -15.83,-9.5z"/>
  <path fill="#F2AD05" fill-rule="nonzero" d="M1619.34 4489.78c0,-2.4 6.32,-8.22 9.84,-8.22 4.07,0 8.15,4.87 15.35,9.97 -7.68,4.64 -12.24,9.74 -15.84,9.04 -3.83,-0.69 -8.63,-6.49 -9.35,-10.67 0,-0.04 0,-0.08 0,-0.12z"/>
  <path fill="#F2AD05" fill-rule="nonzero" d="M181.72 4258.94c0,-3.27 5.36,-8.62 8.64,-9.07 3.6,-0.47 7.9,4.18 14.85,8.34 -6.47,4.87 -10.3,9.75 -13.89,9.52 -3.85,-0.24 -9.6,-5.34 -9.6,-8.58 0,-0.07 0,-0.14 0,-0.21z"/>
  <path fill="#F2AD05" fill-rule="nonzero" d="M1780.46 4567.06c0,-2.73 5.68,-8.75 8.91,-8.98 4.07,-0.22 8.39,4.18 16.3,8.83 -7.19,5.1 -11.27,10.42 -15.11,10.2 -3.84,-0.47 -9.11,-5.8 -10.07,-9.74 -0.03,-0.1 -0.03,-0.2 -0.03,-0.31z"/>
  <path fill="#F2AD05" fill-rule="nonzero" d="M897.06 4259.15c6.71,-4.64 10.55,-9.51 14.14,-9.28 3.6,0.23 6.72,5.57 10.31,8.58 -3.35,3.48 -6.23,8.81 -9.82,9.28 -3.36,0.46 -7.68,-4.18 -14.63,-8.58z"/>
  <path fill="#F2AD05" fill-rule="nonzero" d="M1220.95 4335.45c0,-3.39 4.69,-7.9 8.95,-14.85 5.52,6.73 10.55,10.44 10.8,14.39 0,3.24 -6,9.96 -8.64,9.73 -4.08,-0.46 -10.31,-4.86 -11.03,-8.58 -0.05,-0.22 -0.08,-0.45 -0.08,-0.69z"/>
  <path fill="#F2AD05" fill-rule="nonzero" d="M1939.96 4646.68c0,-2.78 5.03,-5.8 7.91,-8.81 3.36,3.25 8.4,5.57 9.36,9.28 0.02,0.12 0.02,0.23 0.02,0.37 0,2.55 -4.53,6.42 -8.65,12.38 -4.32,-6.02 -8.64,-9.74 -8.64,-13.22z"/>
  <path fill="#F2AD05" fill-rule="nonzero" d="M1143.79 4257.96c0,-2.06 4.69,-6.94 7.22,-6.94 3.59,0 6.71,3.72 12.95,7.43 -5.76,4.17 -9.36,8.35 -12.47,8.12 -3.12,-0.46 -6.96,-5.11 -7.67,-8.36 -0.03,-0.08 -0.03,-0.17 -0.03,-0.25z"/>
  <path fill="#F2AD05" fill-rule="nonzero" d="M2101.57 4722.47c0,-2.24 4.92,-6.91 7.45,-6.91 3.6,0 6.96,3.95 12.95,7.66 -5.99,3.94 -9.59,8.35 -12.47,7.88 -3.36,-0.46 -7.2,-5.1 -7.91,-8.34 -0.02,-0.09 -0.02,-0.19 -0.02,-0.29z"/>
  <path fill="#F2AD05" fill-rule="nonzero" d="M103.04 4258.07c0,-2.56 4.32,-6.42 8.66,-12.38 4.32,6.26 8.63,9.75 8.63,13.23 0,3.01 -5.28,6.03 -7.91,8.81 -3.36,-3.01 -8.39,-5.57 -9.36,-9.28 -0.02,-0.13 -0.02,-0.26 -0.02,-0.38z"/>
  <path fill="#F2AD05" fill-rule="nonzero" d="M2019.1 4647.84c4.79,-3.94 7.91,-8.81 10.07,-8.34 3.6,0.69 6.47,4.63 9.59,7.41 -2.64,2.56 -5.28,6.97 -7.91,7.43 -2.88,0.46 -6.48,-3.49 -11.75,-6.5z"/>
  <path fill="#F2AD05" fill-rule="nonzero" d="M1301.13 4334.81c0,-0.09 0,-0.19 0,-0.29 0.23,-3.01 6.71,-8.12 8.63,-7.65 3.84,1.39 8.15,5.79 8.63,9.51 0.03,0.11 0.03,0.22 0.03,0.34 0,2.53 -4.8,5.95 -9.39,11.48 -3.96,-6.07 -7.9,-9.98 -7.9,-13.39z"/>
  <path fill="#F2AD05" fill-rule="nonzero" d="M1702.8 4491.77c0.24,-3.26 5.03,-6.27 7.67,-9.29 3.12,2.79 8.15,4.88 8.87,8.13 0.03,0.15 0.06,0.3 0.06,0.46 0,2.75 -3.84,6.58 -7.25,12.29 -4.56,-5.33 -9.35,-8.58 -9.35,-11.59z"/>
  <path fill="#F2AD05" fill-rule="nonzero" d="M24.65 4259.98c0,-0.05 0,-0.1 0,-0.13 0.47,-3.49 4.32,-8.13 7.68,-8.83 2.63,-0.22 6.47,3.72 12.7,7.43 -5.99,4.17 -9.36,8.12 -12.47,8.12 -2.82,0 -7.91,-4.66 -7.91,-6.59z"/>
  <path fill="#F2AD05" fill-rule="nonzero" d="M1778.82 4491.07c5.03,-3.71 8.86,-8.13 11.02,-7.43 3.36,0.93 5.76,5.34 8.64,8.13 -2.88,2.54 -5.76,6.72 -8.64,6.72 -2.87,0.23 -5.99,-3.71 -11.02,-7.42z"/>
  <path fill="#F2AD05" fill-rule="nonzero" d="M1861.07 4568.06c0,-0.08 0,-0.14 0,-0.22 0.47,-3.03 5.27,-8.13 8.15,-8.13 2.87,0 7.91,4.64 8.39,7.89 0.03,0.14 0.03,0.28 0.03,0.43 0,2.74 -4.08,6.36 -7.94,11.86 -4.22,-5.42 -8.63,-8.87 -8.63,-11.83z"/>
  <path fill="#F2AD05" fill-rule="nonzero" d="M977.15 4257.52c6.71,-3.47 11.03,-7.42 14.63,-6.96 2.68,0.22 7.48,5.94 7.48,8.18 0,0.16 0,0.29 -0.05,0.41 -1.44,3.47 -6.23,7.42 -9.83,7.88 -2.64,0.46 -6.24,-4.64 -12.23,-9.51z"/>
  <path fill="#F2AD05" fill-rule="nonzero" d="M1621.47 4415.57c0,-0.11 0,-0.22 0.03,-0.34 0.72,-3.25 5.28,-5.79 8.15,-8.58 2.64,2.79 6.96,5.1 7.2,8.11 0,0.09 0,0.17 0,0.25 0,2.72 -3.71,5.71 -7.44,10.65 -3.65,-4.63 -7.94,-7.79 -7.94,-10.09z"/>
  <path fill="#F2AD05" fill-rule="nonzero" d="M1376.42 4334.76c6.47,-3.72 10.31,-7.67 13.19,-7.2 3.12,0.7 6.71,5.57 7.44,8.82 0,0.03 0,0.08 0,0.13 0,2.14 -5.33,6.59 -8.16,6.59 -3.35,-0.23 -6.47,-4.17 -12.47,-8.34z"/>
  <path fill="#F2AD05" fill-rule="nonzero" d="M1541.65 4414.99c0.47,-3.24 5.27,-8.34 8.39,-8.34 2.64,0 7.67,4.64 8.39,7.65 0,0.08 0,0.16 0,0.24 0,2.98 -4.18,6.64 -7.91,12.29 -4.32,-5.57 -8.87,-9.05 -8.87,-11.84z"/>
  <path fill="#F2AD05" fill-rule="nonzero" d="M1061.53 4259.12c0,-0.15 0,-0.29 0.03,-0.43 0.24,-3.02 5.28,-5.57 8.4,-8.36 2.87,2.79 7.67,5.57 7.9,8.82 0,0.08 0,0.15 0,0.24 0,2.95 -4.18,6.17 -8.63,11.82 -3.65,-5.72 -7.7,-9.35 -7.7,-12.09z"/>
  <polygon fill="#FBE612" fill-rule="nonzero" points="5321.96,5145.77 5146.89,5145.77 5321.96,4727.62 "/>
  <polygon fill="#FBE612" fill-rule="nonzero" points="4579.6,5145.77 3947.32,5145.77 5321.96,2315.11 5321.96,3035.3 "/>
  <path fill="#FBE612" fill-rule="nonzero" d="M-6.96 2668.09l0 -804.61 2664.46 -1871.43 478.97 0 -3143.43 2676.04zm0 -2175.75l0 -121.96 419.65 -378.33 215.02 0 -634.67 500.29z"/>
  <path fill="#F2AD05" fill-rule="nonzero" d="M1695.75 4796.2c0,-7.77 6.15,-12.24 14.76,-11.82 8.45,0.21 13.89,4.68 13.89,11.52 0,1.12 -0.17,2.32 -0.46,3.56 -1.44,5.57 -7.44,10.21 -11.51,15.07l-6.48 0c-3.35,-5.55 -9.11,-10.43 -10.06,-16.23 -0.11,-0.72 -0.14,-1.43 -0.14,-2.1z"/>
  <path fill="#F2AD05" fill-rule="nonzero" d="M1769.5 4799c8.64,-6.5 14.39,-13.93 18.47,-13.22 5.51,0.92 10.07,8.35 14.86,12.76 -4.55,4.39 -8.63,11.59 -13.66,12.06 -4.8,0.68 -10.55,-5.8 -19.67,-11.6z"/>
  <path fill="#F2AD05" fill-rule="nonzero" d="M1856.26 4799.12c0,-0.2 0,-0.39 0.06,-0.58 1.19,-4.88 8.39,-8.59 12.94,-12.76 3.84,4.4 10.55,8.58 10.79,12.98 0,0.08 0,0.16 0,0.24 0,4.34 -6.34,8.95 -12.22,16.7 -5.47,-7.7 -11.57,-12.9 -11.57,-16.58z"/>
  <path fill="#F2AD05" fill-rule="nonzero" d="M1936.57 4798.08c0,-0.24 0.02,-0.48 0.08,-0.7 0.96,-3.95 7.67,-8.82 12.23,-9.29 2.63,-0.22 9.11,6.73 9.11,10.45 -0.24,4.16 -5.75,8.34 -11.75,15.99 -4.72,-7.82 -9.67,-12.81 -9.67,-16.45z"/>
  <path fill="#F2AD05" fill-rule="nonzero" d="M2019.38 4797.84c3.36,-3.02 6.72,-8.35 10.31,-8.59 3.6,-0.23 7.19,4.88 13.91,9.51 -6.95,4.41 -11.27,9.05 -14.63,8.35 -3.6,-0.46 -6.48,-6.03 -9.59,-9.27z"/>
  <path fill="#F2AD05" fill-rule="nonzero" d="M2100.41 4797.32c0,-2.24 4.92,-6.91 7.45,-6.91 3.61,0 6.96,3.95 12.96,7.66 -6,3.94 -9.59,8.35 -12.47,7.88 -3.36,-0.46 -7.2,-5.1 -7.92,-8.34 -0.02,-0.09 -0.02,-0.19 -0.02,-0.29z"/>
  <path fill="#F2AD05" fill-rule="nonzero" d="M651.9 4948.03c0,-0.14 0,-0.28 0,-0.41 0.23,-11.6 10.55,-21.57 22.78,-21.34 11.86,0.23 22.06,10.21 22.06,21.64 0,0.13 0,0.27 0,0.4 -0.24,11.82 -10.79,21.33 -22.78,21.33 -11.86,-0.22 -22.06,-9.98 -22.06,-21.62z"/>
  <path fill="#F2AD05" fill-rule="nonzero" d="M572.76 4947.92c0,-11.66 10.21,-21.41 22.3,-21.64 11.99,0 22.31,9.74 22.54,21.58 0,0.12 0,0.25 0,0.38 0,11.44 -10.2,21.41 -22.3,21.41 -11.99,0 -22.31,-9.74 -22.54,-21.33 0,-0.13 0,-0.27 0,-0.4z"/>
  <path fill="#F2AD05" fill-rule="nonzero" d="M490.75 4947.79c0,-0.13 0,-0.27 0,-0.4 0.24,-11.83 11.26,-21.34 23.01,-21.11 11.94,0.45 21.86,10.21 21.86,21.47 0,0.26 -0.03,0.54 -0.03,0.8 -0.24,11.83 -11.03,21.57 -23.03,21.1 -11.85,-0.22 -21.81,-10.42 -21.81,-21.86z"/>
  <path fill="#F2AD05" fill-rule="nonzero" d="M731.27 4947.94c0,-11.45 10.45,-21.66 22.3,-21.66 11.27,0.23 21.58,9.74 22.07,20.88 0.02,0.38 0.02,0.74 0.02,1.11 0,10.95 -10.02,20.93 -21.61,21.38 -11.99,0.24 -22.78,-9.74 -22.78,-21.33 0,-0.13 0,-0.27 0,-0.38z"/>
  <path fill="#F2AD05" fill-rule="nonzero" d="M813.26 4947.9c0,-10.95 10.22,-21.15 21.85,-21.15 11.61,-0.46 22.29,9.97 22.29,21.19 0,0.13 0,0.25 0,0.38 0,11.13 -10.31,20.87 -21.82,21.11 -11.27,0.22 -21.82,-9.29 -22.3,-20.42 -0.02,-0.37 -0.02,-0.74 -0.02,-1.11z"/>
  <path fill="#F2AD05" fill-rule="nonzero" d="M253.58 4947.39c0.48,-11.59 11.75,-21.57 23.5,-20.64 11.38,0.69 20.86,10.87 20.86,21.41 0,0.13 0,0.26 0,0.39 -0.24,11.59 -11.5,21.57 -23.51,20.88 -11.49,-0.94 -20.85,-11.14 -20.85,-22.04z"/>
  <path fill="#F2AD05" fill-rule="nonzero" d="M411.79 4948.19c0,-0.5 0,-0.99 0.06,-1.49 0.97,-11.6 12.46,-21.11 23.98,-20.19 11.22,0.91 20.41,10.87 20.41,21.46 0,0.27 -0.02,0.54 -0.02,0.81 -0.24,11.6 -11.28,21.57 -23.02,20.87 -11.7,-0.66 -21.41,-10.65 -21.41,-21.46z"/>
  <path fill="#F2AD05" fill-rule="nonzero" d="M332.69 4948.08c0,-0.39 0,-0.77 0.02,-1.15 0.72,-11.13 11.04,-20.65 22.55,-20.65 11.61,0.47 22.06,10.44 22.06,21.88 0,0.13 0,0.26 0,0.39 -0.48,11.59 -11.51,21.57 -23.26,21.1 -11.6,-0.67 -21.37,-10.65 -21.37,-21.57z"/>
  <path fill="#F2AD05" fill-rule="nonzero" d="M892.42 4948.08c0.24,-11.59 11.27,-22.03 23.02,-21.33 11.46,0.68 20.86,10.63 20.86,21.25 0,0.26 0,0.51 0,0.78 -0.47,11.13 -10.79,20.65 -22.3,20.41 -11.27,-0.24 -21.58,-10.2 -21.58,-21.11z"/>
  <path fill="#F2AD05" fill-rule="nonzero" d="M971.79 4948c0,-0.14 0,-0.26 0,-0.38 0.49,-11.13 10.55,-20.87 22.06,-20.65 11.27,0.24 21.35,9.98 21.59,20.89 0,11.13 -10.08,20.86 -21.34,21.09 -11.62,0.46 -22.31,-9.74 -22.31,-20.95z"/>
  <path fill="#F2AD05" fill-rule="nonzero" d="M172.04 4948.16c0,-11.21 10.45,-21.41 22.31,-21.19 11.38,0.24 21.35,9.98 21.35,20.73 0,0.14 0,0.25 0,0.38 -0.25,10.91 -10.08,20.87 -21.35,20.87 -11.76,0.24 -21.82,-9.27 -22.31,-20.4 0,-0.13 0,-0.25 0,-0.39z"/>
  <path fill="#F2AD05" fill-rule="nonzero" d="M1051.65 4948.27c0,-0.14 0,-0.27 0,-0.41 0,-11.37 9.83,-20.65 21.58,-20.19 11.27,0.23 20.38,8.82 20.62,19.95 0,0.14 0,0.28 0,0.43 0,11.17 -9.24,20.44 -20.86,20.44 -11.83,0 -21.34,-9.05 -21.34,-20.22z"/>
  <path fill="#F2AD05" fill-rule="nonzero" d="M93.37 4947.54c0,-10.81 9.64,-20.1 21.13,-20.33 11.51,-0.24 21.57,9.28 21.57,20.41 0,0.26 0.03,0.52 0.03,0.78 0,10.81 -9.65,20.1 -20.89,20.32 -11.51,0.23 -21.58,-9.04 -21.82,-20.4 0,-0.27 -0.02,-0.53 -0.02,-0.78z"/>
  <path fill="#F2AD05" fill-rule="nonzero" d="M14.97 4948.08c0,-11.82 9.36,-20.64 21.35,-20.18 11.75,0.47 20.14,9.05 20.14,20.18 0,11.6 -9.34,20.41 -21.57,19.94 -11.51,-0.23 -19.92,-9.03 -19.92,-19.94z"/>
  <path fill="#F2AD05" fill-rule="nonzero" d="M1134.14 4948.09c0,-0.15 0,-0.31 0,-0.47 0.24,-11.13 8.88,-19.49 20.39,-19.49 12.07,0 20.86,8.81 20.86,20.42 0,0.15 0,0.3 0,0.46 -0.72,11.13 -9.6,19.01 -21.35,18.78 -11.59,-0.22 -19.9,-8.57 -19.9,-19.7z"/>
  <path fill="#F2AD05" fill-rule="nonzero" d="M492.4 4871.59c0,-11.39 8.95,-19.98 20.65,-20.22 11.83,-0.23 21.11,8.58 21.11,20.19 0,0.15 0,0.31 0,0.45 -0.49,11.14 -9.13,19.48 -20.64,19.71 -11.51,0 -20.62,-8.34 -21.09,-19.24 0,-0.31 -0.03,-0.6 -0.03,-0.89z"/>
  <path fill="#F2AD05" fill-rule="nonzero" d="M653.54 4871.77c0,-0.3 0,-0.61 0.03,-0.91 0.25,-11.83 9.84,-20.18 22.07,-19.49 11.35,0.69 19.42,9.48 19.42,20.4 0,0.16 0,0.32 0,0.48 -0.24,11.6 -10.07,20.17 -22.06,19.47 -11.19,-0.67 -19.46,-9.25 -19.46,-19.95z"/>
  <path fill="#F2AD05" fill-rule="nonzero" d="M574.44 4871.55c0,-0.16 0,-0.31 0,-0.46 0,-11.6 9.83,-20.41 21.82,-19.72 11.35,0.46 19.66,9.03 19.66,20.17 0,0.15 0,0.31 0,0.47 -0.24,11.6 -9.83,20.18 -22.06,19.71 -11.11,-0.68 -19.42,-9.25 -19.42,-20.17z"/>
  <path fill="#F2AD05" fill-rule="nonzero" d="M413.51 4871.3c0,-0.3 0.02,-0.6 0.02,-0.92 0.72,-11.12 9.59,-19.24 21.34,-18.77 11.6,0.22 19.67,8.56 19.67,19.91 0,0.17 0,0.33 0,0.49 0,11.14 -8.64,19.25 -20.63,19.25 -11.67,0 -20.4,-8.58 -20.4,-19.96z"/>
  <path fill="#F2AD05" fill-rule="nonzero" d="M732.95 4871.79c0,-0.16 0,-0.32 0,-0.47 0,-11.37 8.63,-19.71 20.38,-19.71 11.91,0 20.65,8.58 20.65,19.95 0,0.31 -0.03,0.61 -0.03,0.92 -0.47,11.13 -9.35,19.24 -21.1,18.78 -11.59,-0.23 -19.9,-8.57 -19.9,-19.47z"/>
  <path fill="#F2AD05" fill-rule="nonzero" d="M334.39 4871.77c0,-0.14 0,-0.3 0,-0.45 0,-11.37 8.88,-19.71 20.63,-19.71 11.67,0 20.4,8.58 20.4,19.95 0,0.31 -0.03,0.61 -0.03,0.92 -0.47,11.13 -9.34,19.24 -20.85,18.78 -11.59,-0.23 -20.15,-8.57 -20.15,-19.49z"/>
  <path fill="#F2AD05" fill-rule="nonzero" d="M255.44 4871.74c0,-0.45 0.04,-0.89 0.05,-1.36 0.49,-11.35 9.6,-19.24 21.35,-18.55 11.43,0.45 19.45,8.8 19.45,19.91 0,0.32 0,0.65 -0.03,0.97 -0.71,11.14 -9.82,19.01 -21.33,18.32 -11.27,-0.44 -19.49,-8.58 -19.49,-19.29z"/>
  <path fill="#F2AD05" fill-rule="nonzero" d="M973.47 4871.56c0,-11.13 8.79,-19.5 20.38,-19.5 11.04,0 19.67,8.13 19.67,19.03 0,0.28 0.02,0.57 0.02,0.86 0,10.71 -8.7,19.08 -20.16,19.08 -11.04,-0.23 -19.43,-8.34 -19.91,-19.02 0,-0.14 0,-0.3 0,-0.45z"/>
  <path fill="#F2AD05" fill-rule="nonzero" d="M173.97 4871.77c0,-0.16 0,-0.3 0,-0.45 0,-10.67 8.15,-19.02 19.42,-19.26 11.75,-0.23 20.61,8.36 20.61,19.49 -0.23,10.68 -8.38,19.02 -19.65,19.48 -11.58,0 -20.38,-8.13 -20.38,-19.26z"/>
  <path fill="#F2AD05" fill-rule="nonzero" d="M1213.76 4948.08c0,-0.16 0,-0.31 0,-0.46 0.24,-11.13 9.35,-19.49 21.1,-19.01 10.87,0.69 18.94,8.8 18.94,19.25 0,0.14 0,0.3 0,0.46 -0.24,11.36 -9.35,19.7 -21.1,19.24 -10.87,-0.68 -18.94,-9.02 -18.94,-19.48z"/>
  <path fill="#F2AD05" fill-rule="nonzero" d="M894.34 4871.32c0,-11.13 8.55,-19.49 20.14,-19.49 11.27,0.23 19.66,7.9 20.14,18.8 0.03,0.3 0.03,0.61 0.03,0.91 0,10.93 -8.26,19.27 -19.45,19.49 -11.99,0.23 -20.86,-7.88 -20.86,-19.24 0,-0.16 0,-0.32 0,-0.47z"/>
  <path fill="#F2AD05" fill-rule="nonzero" d="M94.84 4871.58c0,-10.71 8.54,-19.28 20.13,-19.28 10.79,0 19.43,8.12 19.43,18.79 0,0.28 0.03,0.55 0.03,0.84 0,10.51 -8.71,18.87 -19.69,18.87 -10.8,0 -19.42,-8.35 -19.9,-18.79 0,-0.14 0,-0.3 0,-0.43z"/>
  <path fill="#F2AD05" fill-rule="nonzero" d="M814.96 4871.31c0,-11.12 8.31,-19.25 20.15,-19.48 11.74,-0.22 20.37,7.9 20.62,19.26 0,0.15 0,0.3 0,0.45 0,11.15 -8.55,19.49 -20.15,19.49 -11.75,0.23 -20.38,-7.88 -20.62,-19.24 0,-0.16 0,-0.32 0,-0.48z"/>
  <path fill="#F2AD05" fill-rule="nonzero" d="M1293.13 4947.86c0,-10.45 8.87,-19.02 19.67,-19.02 10.78,0 19.66,8.34 19.9,18.78 0,0.14 0,0.3 0,0.43 0,10.24 -8.32,18.59 -18.94,19.05 -11.28,0.46 -20.63,-8.34 -20.63,-19.24z"/>
  <path fill="#F2AD05" fill-rule="nonzero" d="M15.93 4871.55c0,-10.21 9.12,-19.02 19.67,-19.02 10.78,-0.23 19.67,8.59 19.67,18.79 0,10.2 -8.89,19.01 -19.43,19.25 -10.79,0 -19.67,-8.82 -19.91,-19.02z"/>
  <path fill="#F2AD05" fill-rule="nonzero" d="M1052.82 4871.42c0,-10.52 8.95,-19.12 20.17,-19.12 10.79,0.23 19.42,8.58 19.42,19.02 0,0.13 0,0.27 0,0.42 0,10.24 -8.76,18.59 -19.18,18.83 -10.79,0.46 -19.91,-7.88 -20.38,-18.32 -0.03,-0.29 -0.03,-0.56 -0.03,-0.83z"/>
  <path fill="#F2AD05" fill-rule="nonzero" d="M1135.1 4871.48c0,-0.13 0,-0.26 0,-0.39 0.24,-10.44 10.07,-19.48 20.38,-18.33 11.27,1.17 17.99,7.43 18.71,18.56 0.03,0.24 0.03,0.48 0.03,0.74 0,9.89 -9.42,18.5 -19.94,18.27 -10.18,0 -19.18,-8.81 -19.18,-18.85z"/>
  <path fill="#F2AD05" fill-rule="nonzero" d="M1372.5 4948.08c0,-10.2 9.84,-19.24 20.14,-18.78 10.08,0.23 18.71,9.04 18.71,18.78 0,9.98 -9.59,19.02 -20.14,18.79 -9.83,-0.47 -18.47,-9.28 -18.71,-18.79z"/>
  <path fill="#F2AD05" fill-rule="nonzero" d="M1214.93 4871.03c0,-9.44 8.68,-17.8 18.49,-17.8 10.07,-0.47 19.18,8.11 19.42,18.09 0,9.5 -8.63,18.32 -18.7,18.55 -10.08,0.24 -19.18,-8.35 -19.18,-18.08 -0.03,-0.26 -0.03,-0.51 -0.03,-0.76z"/>
  <path fill="#F2AD05" fill-rule="nonzero" d="M1294.57 4872.01c0.23,-10.89 8.87,-19.25 19.19,-18.08 11.02,0.93 17.02,7.19 17.26,17.86 0.02,0.25 0.02,0.49 0.02,0.74 0,9.64 -8.92,17.56 -18.97,16.65 -11.03,-0.93 -16.78,-7.43 -17.5,-17.17z"/>
  <path fill="#F2AD05" fill-rule="nonzero" d="M1455.24 4948.08c0,-9.97 8.87,-18.78 18.94,-18.08 11.03,0.69 17.26,6.95 18.46,17.16 0.06,0.47 0.06,0.95 0.06,1.42 0,9.18 -8.69,17.37 -18.28,17.59 -10.07,0.23 -19.18,-8.11 -19.18,-18.09z"/>
  <path fill="#F2AD05" fill-rule="nonzero" d="M1615.42 4948.18c0,-0.18 0,-0.37 0,-0.56 0.25,-10.21 6.72,-16 17.03,-15.77 10.58,0.23 16.55,6.03 16.55,15.88 0,0.19 0,0.38 0,0.59 -0.24,10.44 -6.96,15.54 -17.27,16.23 -9.89,-1.37 -16.31,-6.31 -16.31,-16.37z"/>
  <path fill="#F2AD05" fill-rule="nonzero" d="M1374.66 4871.32c0,-10.67 6.72,-16.7 17.75,-16.46 10.55,0 16.54,6.02 17.03,16.23 0,0.34 0.02,0.68 0.02,1.02 0,9.99 -6.82,15.02 -16.33,16.38 -11.75,-0.71 -18.47,-6.26 -18.47,-17.17z"/>
  <path fill="#F2AD05" fill-rule="nonzero" d="M1457.15 4871.45c0,-9.88 6.19,-15.92 16.31,-16.36 10.55,-0.23 17.03,5.79 17.27,16 0.03,0.34 0.03,0.68 0.03,1 0,9.55 -6.61,14.59 -16.34,16.16 -10.31,-1.17 -17.02,-6.02 -17.27,-16.24 0,-0.19 0,-0.38 0,-0.56z"/>
  <path fill="#F2AD05" fill-rule="nonzero" d="M1535.81 4948.42c0,-0.2 0,-0.37 0,-0.56 0,-10.91 6.71,-16.94 17.75,-16.71 10.55,0.47 16.54,6.26 16.78,16.47 0.03,0.35 0.03,0.7 0.03,1.05 0,10.2 -6.83,15.23 -16.33,16.58 -11.54,-1.14 -18.23,-6.31 -18.23,-16.83z"/>
  <path fill="#F2AD05" fill-rule="nonzero" d="M1536.58 4869.54c0,-7.19 8.66,-14.58 16.74,-13.76 8.89,0.43 15.96,5.47 15.96,13.61 0,0.62 -0.06,1.27 -0.14,1.93 -1.19,6.49 -7.91,12.06 -12.23,18.09l-6.23 0.46c-4.79,-6.02 -11.51,-11.13 -13.67,-17.62 -0.29,-0.89 -0.43,-1.79 -0.43,-2.71z"/>
  <path fill="#F2AD05" fill-rule="nonzero" d="M1617.55 4871.37c0,-0.17 0,-0.34 0.03,-0.51 0.48,-5.11 8.88,-12.76 14.87,-13.69 8.42,-1.46 15.11,4.43 15.11,12.4 0,0.87 -0.08,1.76 -0.24,2.68 -1.2,6.03 -7.92,10.9 -12.23,16.46l-6.48 0c-3.94,-5.84 -11.06,-11.9 -11.06,-17.34z"/>
  <path fill="#F2AD05" fill-rule="nonzero" d="M1699.94 4869.45c0,-7.77 6.16,-12.24 14.77,-11.82 8.44,0.21 13.88,4.68 13.88,11.52 0,1.13 -0.17,2.32 -0.45,3.56 -1.45,5.57 -7.44,10.21 -11.51,15.07l-6.49 0c-3.35,-5.55 -9.1,-10.43 -10.06,-16.23 -0.11,-0.72 -0.14,-1.43 -0.14,-2.1z"/>
  <path fill="#F2AD05" fill-rule="nonzero" d="M1773.69 4872.25c8.64,-6.5 14.39,-13.93 18.47,-13.22 5.51,0.92 10.07,8.35 14.87,12.76 -4.56,4.39 -8.64,11.59 -13.67,12.06 -4.79,0.68 -10.55,-5.8 -19.67,-11.6z"/>
  <path fill="#F2AD05" fill-rule="nonzero" d="M1860.45 4872.37c0,-0.2 0,-0.39 0.06,-0.58 1.19,-4.88 8.39,-8.59 12.94,-12.76 3.84,4.4 10.55,8.58 10.8,12.98 0,0.08 0,0.16 0,0.24 0,4.34 -6.35,8.95 -12.23,16.7 -5.47,-7.7 -11.57,-12.9 -11.57,-16.58z"/>
  <path fill="#F2AD05" fill-rule="nonzero" d="M1940.76 4871.33c0,-0.24 0.03,-0.48 0.08,-0.7 0.96,-3.95 7.67,-8.82 12.23,-9.29 2.63,-0.22 9.11,6.73 9.11,10.45 -0.24,4.16 -5.75,8.34 -11.75,15.99 -4.72,-7.82 -9.67,-12.81 -9.67,-16.45z"/>
  <path fill="#F2AD05" fill-rule="nonzero" d="M2023.57 4871.09c3.36,-3.02 6.72,-8.35 10.31,-8.59 3.6,-0.23 7.19,4.88 13.91,9.51 -6.95,4.42 -11.27,9.05 -14.62,8.35 -3.61,-0.46 -6.48,-6.03 -9.6,-9.27z"/>
  <path fill="#F2AD05" fill-rule="nonzero" d="M2104.6 4870.57c0,-2.24 4.93,-6.91 7.46,-6.91 3.6,0 6.95,3.95 12.95,7.66 -6,3.94 -9.59,8.35 -12.47,7.88 -3.36,-0.46 -7.2,-5.1 -7.92,-8.34 -0.02,-0.09 -0.02,-0.19 -0.02,-0.29z"/>
  <path fill="#F2AD05" fill-rule="nonzero" d="M1698.79 4944.3c0,-7.76 6.15,-12.24 14.76,-11.82 8.45,0.2 13.88,4.68 13.88,11.52 0,1.13 -0.16,2.32 -0.45,3.56 -1.44,5.57 -7.44,10.21 -11.51,15.07l-6.48 0c-3.35,-5.56 -9.11,-10.43 -10.07,-16.23 -0.1,-0.72 -0.13,-1.43 -0.13,-2.1z"/>
  <path fill="#F2AD05" fill-rule="nonzero" d="M1772.54 4947.1c8.63,-6.5 14.39,-13.92 18.47,-13.22 5.51,0.92 10.06,8.34 14.86,12.76 -4.55,4.39 -8.63,11.59 -13.66,12.06 -4.8,0.68 -10.55,-5.8 -19.67,-11.6z"/>
  <path fill="#F2AD05" fill-rule="nonzero" d="M1859.3 4947.22c0,-0.2 0,-0.39 0.05,-0.58 1.2,-4.87 8.39,-8.59 12.95,-12.76 3.83,4.4 10.55,8.58 10.79,12.98 0,0.08 0,0.16 0,0.24 0,4.34 -6.34,8.94 -12.23,16.7 -5.47,-7.7 -11.56,-12.9 -11.56,-16.58z"/>
  <path fill="#F2AD05" fill-rule="nonzero" d="M1939.6 4946.18c0,-0.24 0.03,-0.48 0.08,-0.7 0.96,-3.95 7.68,-8.82 12.23,-9.29 2.64,-0.23 9.12,6.73 9.12,10.45 -0.24,4.16 -5.76,8.34 -11.75,15.99 -4.72,-7.82 -9.68,-12.81 -9.68,-16.45z"/>
  <path fill="#F2AD05" fill-rule="nonzero" d="M2022.42 4945.94c3.35,-3.02 6.71,-8.35 10.31,-8.59 3.59,-0.23 7.19,4.87 13.9,9.51 -6.95,4.42 -11.27,9.05 -14.62,8.35 -3.6,-0.46 -6.48,-6.03 -9.59,-9.27z"/>
  <path fill="#F2AD05" fill-rule="nonzero" d="M2103.45 4945.42c0,-2.24 4.92,-6.91 7.45,-6.91 3.6,0 6.96,3.95 12.95,7.66 -5.99,3.94 -9.59,8.35 -12.47,7.88 -3.36,-0.46 -7.19,-5.1 -7.91,-8.34 -0.02,-0.09 -0.02,-0.19 -0.02,-0.29z"/>
  <path fill="#F2AD05" fill-rule="nonzero" d="M651.9 5092.98c0,-0.14 0,-0.27 0,-0.4 0.23,-11.6 10.55,-21.58 22.78,-21.35 11.86,0.23 22.06,10.21 22.06,21.64 0,0.14 0,0.27 0,0.4 -0.24,11.83 -10.79,21.34 -22.78,21.34 -11.86,-0.23 -22.06,-9.99 -22.06,-21.63z"/>
  <path fill="#F2AD05" fill-rule="nonzero" d="M572.76 5092.87c0,-11.66 10.21,-21.41 22.3,-21.64 11.99,0 22.31,9.75 22.54,21.58 0,0.12 0,0.25 0,0.39 0,11.43 -10.2,21.41 -22.3,21.41 -11.99,0 -22.31,-9.75 -22.54,-21.34 0,-0.13 0,-0.27 0,-0.4z"/>
  <path fill="#F2AD05" fill-rule="nonzero" d="M490.75 5092.74c0,-0.13 0,-0.27 0,-0.4 0.24,-11.82 11.26,-21.34 23.01,-21.11 11.94,0.45 21.86,10.21 21.86,21.48 0,0.25 -0.03,0.53 -0.03,0.79 -0.24,11.83 -11.03,21.57 -23.03,21.11 -11.85,-0.23 -21.81,-10.43 -21.81,-21.87z"/>
  <path fill="#F2AD05" fill-rule="nonzero" d="M731.27 5092.89c0,-11.45 10.45,-21.66 22.3,-21.66 11.27,0.23 21.58,9.75 22.07,20.88 0.02,0.38 0.02,0.74 0.02,1.12 0,10.94 -10.02,20.92 -21.61,21.38 -11.99,0.23 -22.78,-9.75 -22.78,-21.34 0,-0.13 0,-0.26 0,-0.38z"/>
  <path fill="#F2AD05" fill-rule="nonzero" d="M813.26 5092.85c0,-10.95 10.22,-21.15 21.85,-21.15 11.61,-0.45 22.29,9.97 22.29,21.2 0,0.12 0,0.24 0,0.37 0,11.13 -10.31,20.87 -21.82,21.11 -11.27,0.23 -21.82,-9.28 -22.3,-20.42 -0.02,-0.37 -0.02,-0.73 -0.02,-1.11z"/>
  <path fill="#F2AD05" fill-rule="nonzero" d="M253.58 5092.34c0.48,-11.59 11.75,-21.57 23.5,-20.64 11.38,0.69 20.86,10.88 20.86,21.41 0,0.13 0,0.26 0,0.39 -0.24,11.6 -11.5,21.57 -23.51,20.88 -11.49,-0.94 -20.85,-11.14 -20.85,-22.04z"/>
  <path fill="#F2AD05" fill-rule="nonzero" d="M411.79 5093.14c0,-0.5 0,-0.99 0.06,-1.49 0.97,-11.6 12.46,-21.11 23.98,-20.19 11.22,0.91 20.41,10.87 20.41,21.47 0,0.27 -0.02,0.53 -0.02,0.8 -0.24,11.6 -11.28,21.57 -23.02,20.88 -11.7,-0.67 -21.41,-10.65 -21.41,-21.47z"/>
  <path fill="#F2AD05" fill-rule="nonzero" d="M332.69 5093.03c0,-0.39 0,-0.77 0.02,-1.15 0.72,-11.13 11.04,-20.65 22.55,-20.65 11.61,0.47 22.06,10.44 22.06,21.88 0,0.13 0,0.26 0,0.39 -0.48,11.6 -11.51,21.57 -23.26,21.11 -11.6,-0.68 -21.37,-10.66 -21.37,-21.58z"/>
  <path fill="#F2AD05" fill-rule="nonzero" d="M892.42 5093.03c0.24,-11.59 11.27,-22.03 23.02,-21.33 11.46,0.68 20.86,10.63 20.86,21.25 0,0.26 0,0.52 0,0.78 -0.47,11.13 -10.79,20.65 -22.3,20.41 -11.27,-0.24 -21.58,-10.2 -21.58,-21.11z"/>
  <path fill="#F2AD05" fill-rule="nonzero" d="M971.79 5092.95c0,-0.13 0,-0.26 0,-0.37 0.49,-11.14 10.55,-20.88 22.06,-20.66 11.27,0.24 21.35,9.98 21.59,20.89 0,11.13 -10.08,20.86 -21.34,21.09 -11.62,0.46 -22.31,-9.74 -22.31,-20.95z"/>
  <path fill="#F2AD05" fill-rule="nonzero" d="M172.04 5093.12c0,-11.22 10.45,-21.42 22.31,-21.2 11.38,0.24 21.35,9.98 21.35,20.74 0,0.13 0,0.24 0,0.37 -0.25,10.91 -10.08,20.87 -21.35,20.87 -11.76,0.24 -21.82,-9.27 -22.31,-20.4 0,-0.13 0,-0.25 0,-0.38z"/>
  <path fill="#F2AD05" fill-rule="nonzero" d="M1051.65 5093.22c0,-0.14 0,-0.27 0,-0.41 0,-11.37 9.83,-20.65 21.58,-20.18 11.27,0.22 20.38,8.81 20.62,19.95 0,0.13 0,0.27 0,0.42 0,11.17 -9.24,20.44 -20.86,20.44 -11.83,0 -21.34,-9.05 -21.34,-20.22z"/>
  <path fill="#F2AD05" fill-rule="nonzero" d="M93.37 5092.49c0,-10.81 9.64,-20.1 21.13,-20.33 11.51,-0.24 21.57,9.28 21.57,20.42 0,0.25 0.03,0.51 0.03,0.77 0,10.81 -9.65,20.1 -20.89,20.32 -11.51,0.23 -21.58,-9.04 -21.82,-20.4 0,-0.26 -0.02,-0.53 -0.02,-0.78z"/>
  <path fill="#F2AD05" fill-rule="nonzero" d="M14.97 5093.03c0,-11.82 9.36,-20.64 21.35,-20.18 11.75,0.47 20.14,9.05 20.14,20.18 0,11.6 -9.34,20.41 -21.57,19.95 -11.51,-0.24 -19.92,-9.04 -19.92,-19.95z"/>
  <path fill="#F2AD05" fill-rule="nonzero" d="M1134.14 5093.04c0,-0.15 0,-0.3 0,-0.46 0.24,-11.14 8.88,-19.49 20.39,-19.49 12.07,0 20.86,8.81 20.86,20.41 0,0.15 0,0.3 0,0.46 -0.72,11.14 -9.6,19.02 -21.35,18.78 -11.59,-0.22 -19.9,-8.57 -19.9,-19.7z"/>
  <path fill="#F2AD05" fill-rule="nonzero" d="M492.4 5016.54c0,-11.39 8.95,-19.98 20.65,-20.22 11.83,-0.23 21.11,8.59 21.11,20.19 0,0.16 0,0.31 0,0.46 -0.49,11.13 -9.13,19.48 -20.64,19.7 -11.51,0 -20.62,-8.34 -21.09,-19.24 0,-0.3 -0.03,-0.6 -0.03,-0.89z"/>
  <path fill="#F2AD05" fill-rule="nonzero" d="M653.54 5016.72c0,-0.3 0,-0.61 0.03,-0.91 0.25,-11.82 9.84,-20.18 22.07,-19.49 11.35,0.69 19.42,9.48 19.42,20.4 0,0.16 0,0.32 0,0.48 -0.24,11.6 -10.07,20.17 -22.06,19.47 -11.19,-0.67 -19.46,-9.24 -19.46,-19.95z"/>
  <path fill="#F2AD05" fill-rule="nonzero" d="M574.44 5016.5c0,-0.16 0,-0.31 0,-0.45 0,-11.6 9.83,-20.42 21.82,-19.73 11.35,0.46 19.66,9.03 19.66,20.17 0,0.15 0,0.31 0,0.48 -0.24,11.6 -9.83,20.17 -22.06,19.7 -11.11,-0.68 -19.42,-9.25 -19.42,-20.17z"/>
  <path fill="#F2AD05" fill-rule="nonzero" d="M413.51 5016.26c0,-0.31 0.02,-0.61 0.02,-0.92 0.72,-11.13 9.59,-19.25 21.34,-18.78 11.6,0.22 19.67,8.56 19.67,19.91 0,0.17 0,0.33 0,0.5 0,11.13 -8.64,19.24 -20.63,19.24 -11.67,0 -20.4,-8.58 -20.4,-19.95z"/>
  <path fill="#F2AD05" fill-rule="nonzero" d="M732.95 5016.74c0,-0.16 0,-0.32 0,-0.47 0,-11.36 8.63,-19.71 20.38,-19.71 11.91,0 20.65,8.58 20.65,19.95 0,0.31 -0.03,0.61 -0.03,0.92 -0.47,11.14 -9.35,19.24 -21.1,18.78 -11.59,-0.23 -19.9,-8.57 -19.9,-19.47z"/>
  <path fill="#F2AD05" fill-rule="nonzero" d="M334.39 5016.72c0,-0.14 0,-0.3 0,-0.45 0,-11.36 8.88,-19.71 20.63,-19.71 11.67,0 20.4,8.58 20.4,19.95 0,0.31 -0.03,0.61 -0.03,0.92 -0.47,11.14 -9.34,19.24 -20.85,18.78 -11.59,-0.23 -20.15,-8.57 -20.15,-19.49z"/>
  <path fill="#F2AD05" fill-rule="nonzero" d="M255.44 5016.7c0,-0.46 0.04,-0.9 0.05,-1.36 0.49,-11.35 9.6,-19.25 21.35,-18.56 11.43,0.46 19.45,8.81 19.45,19.92 0,0.31 0,0.64 -0.03,0.96 -0.71,11.14 -9.82,19.01 -21.33,18.32 -11.27,-0.44 -19.49,-8.58 -19.49,-19.28z"/>
  <path fill="#F2AD05" fill-rule="nonzero" d="M973.47 5016.51c0,-11.13 8.79,-19.49 20.38,-19.49 11.04,0 19.67,8.12 19.67,19.03 0,0.27 0.02,0.56 0.02,0.85 0,10.72 -8.7,19.08 -20.16,19.08 -11.04,-0.23 -19.43,-8.34 -19.91,-19.01 0,-0.15 0,-0.3 0,-0.46z"/>
  <path fill="#F2AD05" fill-rule="nonzero" d="M173.97 5016.72c0,-0.16 0,-0.3 0,-0.45 0,-10.66 8.15,-19.02 19.42,-19.25 11.75,-0.24 20.61,8.35 20.61,19.48 -0.23,10.68 -8.38,19.02 -19.65,19.48 -11.58,0 -20.38,-8.13 -20.38,-19.26z"/>
  <path fill="#F2AD05" fill-rule="nonzero" d="M1213.76 5093.03c0,-0.16 0,-0.31 0,-0.45 0.24,-11.14 9.35,-19.49 21.1,-19.02 10.87,0.69 18.94,8.8 18.94,19.25 0,0.14 0,0.31 0,0.46 -0.24,11.36 -9.35,19.71 -21.1,19.25 -10.87,-0.69 -18.94,-9.03 -18.94,-19.49z"/>
  <path fill="#F2AD05" fill-rule="nonzero" d="M894.34 5016.27c0,-11.13 8.55,-19.49 20.14,-19.49 11.27,0.24 19.66,7.9 20.14,18.8 0.03,0.3 0.03,0.61 0.03,0.91 0,10.93 -8.26,19.27 -19.45,19.49 -11.99,0.23 -20.86,-7.88 -20.86,-19.24 0,-0.16 0,-0.32 0,-0.47z"/>
  <path fill="#F2AD05" fill-rule="nonzero" d="M94.84 5016.53c0,-10.7 8.54,-19.28 20.13,-19.28 10.79,0 19.43,8.12 19.43,18.8 0,0.27 0.03,0.54 0.03,0.83 0,10.51 -8.71,18.87 -19.69,18.87 -10.8,0 -19.42,-8.35 -19.9,-18.78 0,-0.15 0,-0.3 0,-0.44z"/>
  <path fill="#F2AD05" fill-rule="nonzero" d="M814.96 5016.26c0,-11.12 8.31,-19.24 20.15,-19.48 11.74,-0.22 20.37,7.9 20.62,19.27 0,0.14 0,0.29 0,0.44 0,11.15 -8.55,19.49 -20.15,19.49 -11.75,0.23 -20.38,-7.88 -20.62,-19.24 0,-0.16 0,-0.32 0,-0.48z"/>
  <path fill="#F2AD05" fill-rule="nonzero" d="M1293.13 5092.81c0,-10.45 8.87,-19.02 19.67,-19.02 10.78,0 19.66,8.35 19.9,18.79 0,0.13 0,0.29 0,0.43 0,10.23 -8.32,18.59 -18.94,19.04 -11.28,0.47 -20.63,-8.34 -20.63,-19.24z"/>
  <path fill="#F2AD05" fill-rule="nonzero" d="M15.93 5016.5c0,-10.21 9.12,-19.02 19.67,-19.02 10.78,-0.23 19.67,8.59 19.67,18.79 0,10.2 -8.89,19.02 -19.43,19.25 -10.79,0 -19.67,-8.82 -19.91,-19.02z"/>
  <path fill="#F2AD05" fill-rule="nonzero" d="M1052.82 5016.37c0,-10.52 8.95,-19.12 20.17,-19.12 10.79,0.23 19.42,8.58 19.42,19.02 0,0.13 0,0.27 0,0.42 0,10.25 -8.76,18.6 -19.18,18.83 -10.79,0.46 -19.91,-7.88 -20.38,-18.32 -0.03,-0.29 -0.03,-0.56 -0.03,-0.83z"/>
  <path fill="#F2AD05" fill-rule="nonzero" d="M1135.1 5016.43c0,-0.13 0,-0.26 0,-0.38 0.24,-10.44 10.07,-19.49 20.38,-18.34 11.27,1.17 17.99,7.43 18.71,18.56 0.03,0.24 0.03,0.48 0.03,0.74 0,9.89 -9.42,18.5 -19.94,18.28 -10.18,0 -19.18,-8.82 -19.18,-18.86z"/>
  <path fill="#F2AD05" fill-rule="nonzero" d="M1372.5 5093.03c0,-10.2 9.84,-19.24 20.14,-18.77 10.08,0.22 18.71,9.03 18.71,18.77 0,9.98 -9.59,19.02 -20.14,18.79 -9.83,-0.46 -18.47,-9.27 -18.71,-18.79z"/>
  <path fill="#F2AD05" fill-rule="nonzero" d="M1214.93 5015.98c0,-9.44 8.68,-17.79 18.49,-17.79 10.07,-0.48 19.18,8.1 19.42,18.08 0,9.51 -8.63,18.32 -18.7,18.56 -10.08,0.23 -19.18,-8.36 -19.18,-18.09 -0.03,-0.26 -0.03,-0.5 -0.03,-0.76z"/>
  <path fill="#F2AD05" fill-rule="nonzero" d="M1294.57 5016.97c0.23,-10.9 8.87,-19.26 19.19,-18.09 11.02,0.93 17.02,7.19 17.26,17.86 0.02,0.25 0.02,0.5 0.02,0.74 0,9.65 -8.92,17.56 -18.97,16.65 -11.03,-0.93 -16.78,-7.43 -17.5,-17.16z"/>
  <path fill="#F2AD05" fill-rule="nonzero" d="M1455.24 5093.03c0,-9.97 8.87,-18.77 18.94,-18.08 11.03,0.69 17.26,6.95 18.46,17.16 0.06,0.47 0.06,0.95 0.06,1.42 0,9.18 -8.69,17.37 -18.28,17.59 -10.07,0.24 -19.18,-8.11 -19.18,-18.09z"/>
  <path fill="#F2AD05" fill-rule="nonzero" d="M1615.42 5093.13c0,-0.18 0,-0.37 0,-0.55 0.25,-10.22 6.72,-16.01 17.03,-15.78 10.58,0.23 16.55,6.03 16.55,15.88 0,0.19 0,0.38 0,0.59 -0.24,10.44 -6.96,15.54 -17.27,16.24 -9.89,-1.38 -16.31,-6.31 -16.31,-16.38z"/>
  <path fill="#F2AD05" fill-rule="nonzero" d="M1374.66 5016.27c0,-10.66 6.72,-16.7 17.75,-16.46 10.55,0 16.54,6.02 17.03,16.24 0,0.33 0.02,0.67 0.02,1.01 0,9.99 -6.82,15.03 -16.33,16.38 -11.75,-0.71 -18.47,-6.26 -18.47,-17.17z"/>
  <path fill="#F2AD05" fill-rule="nonzero" d="M1457.15 5016.4c0,-9.87 6.19,-15.91 16.31,-16.36 10.55,-0.23 17.03,5.79 17.27,16.01 0.03,0.33 0.03,0.67 0.03,1 0,9.54 -6.61,14.58 -16.34,16.15 -10.31,-1.16 -17.02,-6.02 -17.27,-16.23 0,-0.19 0,-0.38 0,-0.57z"/>
  <path fill="#F2AD05" fill-rule="nonzero" d="M1535.81 5093.37c0,-0.2 0,-0.37 0,-0.56 0,-10.91 6.71,-16.94 17.75,-16.71 10.55,0.47 16.54,6.26 16.78,16.48 0.03,0.35 0.03,0.7 0.03,1.04 0,10.2 -6.83,15.23 -16.33,16.58 -11.54,-1.14 -18.23,-6.31 -18.23,-16.83z"/>
  <path fill="#F2AD05" fill-rule="nonzero" d="M1536.58 5014.49c0,-7.19 8.66,-14.58 16.74,-13.76 8.89,0.44 15.96,5.47 15.96,13.61 0,0.62 -0.06,1.27 -0.14,1.93 -1.19,6.5 -7.91,12.06 -12.23,18.09l-6.23 0.47c-4.79,-6.03 -11.51,-11.14 -13.67,-17.63 -0.29,-0.88 -0.43,-1.79 -0.43,-2.71z"/>
  <path fill="#F2AD05" fill-rule="nonzero" d="M1617.55 5016.32c0,-0.16 0,-0.34 0.03,-0.51 0.48,-5.1 8.88,-12.76 14.87,-13.69 8.42,-1.46 15.11,4.43 15.11,12.41 0,0.86 -0.08,1.76 -0.24,2.67 -1.2,6.03 -7.92,10.9 -12.23,16.46l-6.48 0c-3.94,-5.84 -11.06,-11.9 -11.06,-17.34z"/>
  <path fill="#F2AD05" fill-rule="nonzero" d="M1699.94 5014.4c0,-7.76 6.16,-12.24 14.77,-11.82 8.44,0.21 13.88,4.69 13.88,11.52 0,1.13 -0.17,2.32 -0.45,3.56 -1.45,5.57 -7.44,10.21 -11.51,15.07l-6.49 0c-3.35,-5.55 -9.1,-10.42 -10.06,-16.23 -0.11,-0.72 -0.14,-1.43 -0.14,-2.1z"/>
  <path fill="#F2AD05" fill-rule="nonzero" d="M1773.69 5017.2c8.64,-6.49 14.39,-13.92 18.47,-13.21 5.51,0.92 10.07,8.34 14.87,12.75 -4.56,4.4 -8.64,11.59 -13.67,12.06 -4.79,0.69 -10.55,-5.8 -19.67,-11.6z"/>
  <path fill="#F2AD05" fill-rule="nonzero" d="M1860.45 5017.32c0,-0.2 0,-0.39 0.06,-0.58 1.19,-4.87 8.39,-8.59 12.94,-12.75 3.84,4.39 10.55,8.57 10.8,12.98 0,0.08 0,0.16 0,0.23 0,4.34 -6.35,8.95 -12.23,16.7 -5.47,-7.7 -11.57,-12.9 -11.57,-16.58z"/>
  <path fill="#F2AD05" fill-rule="nonzero" d="M1940.76 5016.29c0,-0.24 0.03,-0.49 0.08,-0.71 0.96,-3.95 7.67,-8.82 12.23,-9.29 2.63,-0.22 9.11,6.73 9.11,10.45 -0.24,4.16 -5.75,8.34 -11.75,15.99 -4.72,-7.82 -9.67,-12.81 -9.67,-16.44z"/>
  <path fill="#F2AD05" fill-rule="nonzero" d="M2023.57 5016.05c3.36,-3.03 6.72,-8.36 10.31,-8.59 3.6,-0.24 7.19,4.87 13.91,9.51 -6.95,4.41 -11.27,9.04 -14.62,8.34 -3.61,-0.46 -6.48,-6.03 -9.6,-9.26z"/>
  <path fill="#F2AD05" fill-rule="nonzero" d="M2104.6 5015.52c0,-2.24 4.93,-6.9 7.46,-6.9 3.6,0 6.95,3.94 12.95,7.65 -6,3.94 -9.59,8.35 -12.47,7.88 -3.36,-0.46 -7.2,-5.1 -7.92,-8.34 -0.02,-0.09 -0.02,-0.19 -0.02,-0.29z"/>
  <path fill="#F2AD05" fill-rule="nonzero" d="M1698.79 5089.25c0,-7.76 6.15,-12.24 14.76,-11.82 8.45,0.21 13.88,4.68 13.88,11.52 0,1.13 -0.16,2.32 -0.45,3.56 -1.44,5.57 -7.44,10.21 -11.51,15.07l-6.48 0c-3.35,-5.55 -9.11,-10.43 -10.07,-16.22 -0.1,-0.73 -0.13,-1.44 -0.13,-2.11z"/>
  <path fill="#F2AD05" fill-rule="nonzero" d="M1772.54 5092.05c8.63,-6.5 14.39,-13.92 18.47,-13.21 5.51,0.92 10.06,8.34 14.86,12.75 -4.55,4.4 -8.63,11.59 -13.66,12.06 -4.8,0.69 -10.55,-5.8 -19.67,-11.6z"/>
  <path fill="#F2AD05" fill-rule="nonzero" d="M1859.3 5092.17c0,-0.2 0,-0.39 0.05,-0.58 1.2,-4.87 8.39,-8.59 12.95,-12.75 3.83,4.39 10.55,8.57 10.79,12.97 0,0.09 0,0.17 0,0.24 0,4.34 -6.34,8.95 -12.23,16.7 -5.47,-7.7 -11.56,-12.9 -11.56,-16.58z"/>
  <path fill="#F2AD05" fill-rule="nonzero" d="M1939.6 5091.14c0,-0.25 0.03,-0.49 0.08,-0.71 0.96,-3.95 7.68,-8.82 12.23,-9.29 2.64,-0.22 9.12,6.73 9.12,10.45 -0.24,4.16 -5.76,8.34 -11.75,15.99 -4.72,-7.82 -9.68,-12.81 -9.68,-16.44z"/>
  <path fill="#F2AD05" fill-rule="nonzero" d="M2022.42 5090.89c3.35,-3.02 6.71,-8.35 10.31,-8.59 3.59,-0.23 7.19,4.88 13.9,9.51 -6.95,4.42 -11.27,9.05 -14.62,8.35 -3.6,-0.46 -6.48,-6.03 -9.59,-9.27z"/>
  <path fill="#F2AD05" fill-rule="nonzero" d="M2103.45 5090.37c0,-2.24 4.92,-6.9 7.45,-6.9 3.6,0 6.96,3.94 12.95,7.65 -5.99,3.94 -9.59,8.35 -12.47,7.88 -3.36,-0.46 -7.19,-5.1 -7.91,-8.34 -0.02,-0.09 -0.02,-0.19 -0.02,-0.29z"/>
 </g>
</svg>
